<?xml version="1.0" encoding="utf-8"?>
<!-- Generator: Adobe Illustrator 12.0.0, SVG Export Plug-In . SVG Version: 6.00 Build 51448)  -->
<!DOCTYPE svg PUBLIC "-//W3C//DTD SVG 1.1//EN" "http://www.w3.org/Graphics/SVG/1.1/DTD/svg11.dtd" [
	<!ENTITY ns_svg "http://www.w3.org/2000/svg">
	<!ENTITY ns_xlink "http://www.w3.org/1999/xlink">
]>
<svg  version="1.1" id="Layer_1" xmlns="&ns_svg;" xmlns:xlink="&ns_xlink;" width="595.28" height="595.276"
	 viewBox="0 0 595.28 595.276" overflow="visible" enable-background="new 0 0 595.28 595.276" xml:space="preserve">
<polygon fill="#113F71" points="297.64,78.943 38.725,527.399 556.556,527.399 "/>
<g>
	<defs>
		<rect id="XMLID_1_" width="595.28" height="595.276"/>
	</defs>
	<clipPath id="XMLID_9_">
		<use xlink:href="#XMLID_1_" />
	</clipPath>
	<path clip-path="url(#XMLID_9_)" fill="#DA2B26" d="M556.556,527.4H38.725l129.457-224.229c8-5,13.809-10.601,20.336-17.187
		c4.406,0.783,15.84-8.842,18.311-8.717c2.47,0.125,7.595,9.75,9.845,9.75s3.875-9.233,5.5-10.804c1.625-1.571,6.125-1.554,9.25,0
		c3.125,1.554,12.311,17.179,13.781,16.804c1.469-0.375-5.781-16.75-3.781-18s11.959,3.958,16.834,6.583s9.111,10.492,12.888,9.205
		c6.353,8.101,15.254,18.703,24.766,22.834h44.537l12.637,19.124H424l20.421,16.854v1.958l-1.884,0.002l-0.025,22.104L436,373.638
		l-0.005,12.872c25.058,15.233,52.98,53.948,71.642,56.159L556.556,527.4z"/>
	<path clip-path="url(#XMLID_9_)" fill="#FFFFFF" d="M206.829,277.268c2.471,0.125,7.596,9.75,9.846,9.75s3.875-9.233,5.5-10.804
		s6.125-1.554,9.25,0s12.31,17.179,13.78,16.804c1.47-0.375-5.78-16.75-3.78-18s11.958,3.958,16.833,6.583
		s9.111,10.492,12.889,9.205c-12.23-15.979-22.675-30.947-42.222-30.947c-15.038,0-27.199,12.803-40.407,26.126h0.001
		C192.924,286.768,204.357,277.143,206.829,277.268"/>
	<path clip-path="url(#XMLID_9_)" fill="#FFC82F" d="M297.64,78.943l129.458,224.229l129.458,224.228H297.64H38.725l129.457-224.228
		L297.64,78.943z M297.64,50.597L155.908,296.084L14.176,541.573H297.64h283.465L439.373,296.084L297.64,50.597z"/>
	<path clip-path="url(#XMLID_9_)" fill="#FFFFFF" d="M302.75,369.888c2.501,0.738,6.532,0.772,5.393,2.716
		c-0.103,0.177-17.972,0-17.972,0v-9.695c0.011-0.639,1.28-1.959,2.959,0.792C296.563,369.326,299.058,368.8,302.75,369.888"/>
	<path clip-path="url(#XMLID_9_)" fill-rule="evenodd" clip-rule="evenodd" fill="#FFFFFF" d="M205.904,326.406H189l-33.167,35.086
		h72.421l32.316-35.086l27.763,27.91h21.912l30.203-40.67l1.489-2.075c4.461,0.552,4.466,4.539,11.828,5.213l5-6.683
		c-6.171,0.215-9.514-5.047-13.234-6.344l-7.371,9.889l-82.562-0.009l-12.329,12.769h-32.738l0.002-3.262
		c1.352-0.409,2.26-1.165,2.26-2.03c0-1.299-2.049-2.354-4.576-2.354s-4.576,1.055-4.576,2.354c0,0.866,0.909,1.622,2.263,2.031
		V326.406z"/>
	<rect x="420.682" y="351.732" clip-path="url(#XMLID_9_)" fill="#FFC82F" width="13.553" height="14.31"/>
	<rect x="245.333" y="347.275" clip-path="url(#XMLID_9_)" fill="#FFC82F" width="10" height="12.634"/>
	<rect x="258.083" y="347.275" clip-path="url(#XMLID_9_)" fill="#FFC82F" width="15.667" height="12.634"/>
	<rect x="325.068" y="343.949" clip-path="url(#XMLID_9_)" fill="#FFC82F" width="11.933" height="16.208"/>
	<rect x="339.636" y="343.949" clip-path="url(#XMLID_9_)" fill="#FFC82F" width="11.934" height="16.208"/>
	<rect x="364.75" y="366.041" clip-path="url(#XMLID_9_)" fill="#FFC82F" width="13.375" height="5.348"/>
	<rect x="437.085" y="351.733" clip-path="url(#XMLID_9_)" fill="#FFC82F" width="2.916" height="14.309"/>
	<rect x="425.417" y="379.138" clip-path="url(#XMLID_9_)" fill="#FFC82F" width="7.667" height="11.333"/>
	<path clip-path="url(#XMLID_9_)" fill-rule="evenodd" clip-rule="evenodd" fill="#FFFFFF" d="M386.188,332.764H424l20.421,16.854
		l-25.854-0.001l-2.482,13.813l-51.459-0.038l0.018-7.364l2.771-0.015v-1.636l-14.328-21.613h31.446l0.001-28.22h1.655
		c4.791-0.319,7.951,3.107,13.858,2.078l-0.008,8.742c-7.642,1.855-8.534-2.11-13.851-1.158V332.764z"/>
	<path clip-path="url(#XMLID_9_)" fill="#FFFFFF" d="M435.938,406.138c2.808,2.146,2.424,5.793,4.5,6.97
		c1.846,1.046,6.181,0.666,6.181,2.154c0,0.188-4.906,1.117-8.764,0.929c-6.447-0.315-13.833-0.25-13.833-0.833
		c0-2.25,4.399-1.507,7.25-2.334c2.917-0.847,4.68-3.094,4.68-3.094L435.938,406.138z"/>
</g>
<g>
	<defs>
		<rect id="XMLID_3_" width="595.28" height="595.276"/>
	</defs>
	<clipPath id="XMLID_10_">
		<use xlink:href="#XMLID_3_" />
	</clipPath>
	<path clip-path="url(#XMLID_10_)" fill="#FFC82F" d="M351.274,511.743H244.005c-8.849,0-16.022,7.173-16.022,16.021v13.81h139.314
		v-13.81C367.298,518.916,360.123,511.743,351.274,511.743"/>
	<path clip-path="url(#XMLID_10_)" fill="#DA2B26" d="M251.719,536.701c-1.764,0-3.224-0.618-4.339-1.835
		c-1.109-1.211-1.672-2.788-1.672-4.688c0-1.841,0.598-3.455,1.777-4.802c1.189-1.356,2.623-2.044,4.264-2.044
		c1.589,0,2.975,0.631,4.12,1.878c0.963,1.057,1.451,2.136,1.451,3.209c0,0.258-0.105,0.855-1.073,0.855l-1.009-0.029l-5.1,0.073
		l-0.508-0.015c-0.268,0-0.348,0.036-0.356,0.04c0.003,0-0.054,0.07-0.054,0.322c0,1.219,0.403,2.311,1.197,3.247
		c0.794,0.936,1.678,1.391,2.701,1.391c1.156,0,2.088-0.336,2.77-0.999l0.467-0.457c0.164-0.165,0.334-0.199,0.447-0.199
		c0.374,0,0.606,0.226,0.606,0.591c0,0.257-0.139,0.676-1.224,1.634C254.809,536.084,253.307,536.701,251.719,536.701
		 M251.339,524.645c-0.572,0-1.065,0.282-1.508,0.863c-0.454,0.595-0.684,1.31-0.684,2.124c0,0.2,0.043,0.252,0.043,0.252
		c0.019,0.007,0.194,0.062,1.027,0.062c0.316,0,0.651-0.01,1.004-0.03c0.885-0.039,1.394-0.058,1.531-0.058
		c0.998,0,0.998-0.364,0.998-0.501c0-0.719-0.245-1.339-0.749-1.897C252.504,524.912,251.96,524.645,251.339,524.645"/>
	<path clip-path="url(#XMLID_10_)" fill="#DA2B26" d="M263.196,536.701c-0.625,0-1.391-0.105-2.277-0.314l-1.014-0.25l-0.634-0.098
		c-0.36-0.066-0.563-0.317-0.563-0.691c0-0.082,0.006-0.209,0.015-0.382c0.02-0.173,0.029-0.353,0.029-0.555l-0.058-2.309
		c0-0.315,0.037-0.488,0.128-0.602c0.138-0.165,0.374-0.186,0.565-0.186c0.173,0,0.48,0.08,0.6,0.615
		c0.111,0.585,0.424,1.294,0.931,2.118c0.583,0.93,1.324,1.382,2.263,1.382c0.517,0,0.933-0.153,1.272-0.469
		c0.333-0.312,0.495-0.693,0.495-1.169c0-0.535-0.155-0.945-0.476-1.251c-0.348-0.333-1.039-0.705-2.054-1.106
		c-1.313-0.509-2.207-1.045-2.73-1.636c-0.534-0.603-0.804-1.417-0.804-2.421c0-1.226,0.449-2.216,1.334-2.942
		c0.869-0.715,2.048-1.075,3.505-1.075c0.687,0,1.448,0.117,2.261,0.348c0.648,0.189,0.818,0.546,0.848,0.813l0.134,2.079
		c0.016,0.034,0.029,0.117,0.029,0.193c0,0.341-0.234,0.562-0.595,0.562c-0.25,0-0.508-0.185-1.02-1.107
		c-0.643-1.157-1.417-1.72-2.366-1.72c-0.459,0-0.843,0.14-1.172,0.425c-0.317,0.276-0.472,0.587-0.472,0.95
		c0,0.694,0.504,1.243,1.539,1.674l1.009,0.408c0.882,0.37,1.472,0.652,1.804,0.865c0.339,0.218,0.664,0.528,0.966,0.924
		c0.515,0.684,0.776,1.529,0.776,2.515c0,1.223-0.416,2.273-1.237,3.125C265.404,536.268,264.384,536.701,263.196,536.701"/>
	<path clip-path="url(#XMLID_10_)" fill="#DA2B26" d="M273.702,536.701c-1.167,0-2.046-0.277-2.612-0.825
		c-0.569-0.551-0.857-1.396-0.857-2.516v-7.602h-0.61c-0.858,0-0.987-0.42-0.987-0.671c0-0.26,0.161-0.497,0.491-0.725
		c0.406-0.273,1-0.809,1.766-1.591c0.768-0.784,1.285-1.385,1.537-1.784c0.387-0.611,0.663-0.828,0.933-0.835
		c0.097,0.012,0.366,0.077,0.395,0.482l0.001,3.136h1.84c0.397,0,0.583-0.074,0.669-0.137l0.392-0.257
		c0.105-0.079,0.241-0.133,0.391-0.147c0.216-0.014,0.343,0.065,0.411,0.133c0.068,0.067,0.147,0.192,0.135,0.401
		c-0.015,0.135-0.057,0.27-0.128,0.427c-0.031,0.061-0.085,0.206-0.155,0.583c-0.184,0.857-0.758,0.984-1.085,0.984h-2.47v6.865
		c0,0.999,0.18,1.446,0.331,1.646c0.201,0.266,0.586,0.4,1.143,0.4c0.223,0,0.538-0.063,0.934-0.186
		c0.486-0.152,0.7-0.273,0.793-0.349c0.173-0.13,0.294-0.184,0.412-0.184c0.126,0,0.428,0.053,0.5,0.541l0.05,0.255l-0.244,0.352
		C276.511,536.178,275.187,536.701,273.702,536.701"/>
	<path clip-path="url(#XMLID_10_)" fill="#DA2B26" d="M282.154,536.701c-0.283,0-0.599-0.195-0.995-0.616
		c-0.442-0.481-0.784-0.829-1.018-1.036c-0.555-0.499-0.812-0.883-0.812-1.209c0-0.317,0.23-0.669,0.723-1.105
		c0.207-0.18,0.514-0.491,0.914-0.931c0.488-0.524,0.864-0.767,1.188-0.767c0.343,0,0.72,0.233,1.186,0.734l1.43,1.521
		c0.148,0.209,0.209,0.406,0.209,0.62c0,0.315-0.234,0.675-0.735,1.132c-0.223,0.186-0.493,0.452-0.815,0.802
		C282.885,536.438,282.492,536.701,282.154,536.701"/>
	<path clip-path="url(#XMLID_10_)" fill="#DA2B26" d="M302.398,536.408c-0.195,0-0.817-0.043-1.901-0.133
		c-0.548-0.048-1.319-0.072-2.295-0.072c-0.962,0-1.8,0.044-2.489,0.13c-0.303,0.031-0.518,0.046-0.651,0.046
		c-0.401,0-0.651-0.252-0.651-0.658c0-0.167,0.061-0.563,0.621-0.652c1.173-0.182,1.629-0.432,1.806-0.607
		c0.17-0.169,0.371-0.571,0.371-1.524l-0.014-0.549l-0.001-11.148c0-1.109-0.49-1.252-0.917-1.252c-0.272,0-0.514,0.047-0.721,0.138
		l-0.366,0.161c-0.683,0.248-1.072-0.046-1.072-0.553c0-0.241,0.091-0.575,0.519-0.802c0.268-0.141,0.781-0.295,1.568-0.471
		c1.355-0.291,2.323-0.698,2.879-1.207l0.691-0.63c0.161-0.146,0.359-0.221,0.588-0.221c0.173,0,0.576,0.082,0.576,0.84
		c0,0.111-0.01,0.308-0.029,0.591l-0.118,1.322c-0.019,0.253-0.028,0.544-0.028,0.867l-0.029,13.173l0.142,0.756
		c0.227,0.593,0.97,0.949,2.197,1.011c0.77,0.037,0.884,0.417,0.884,0.641C303.958,536.136,303.434,536.408,302.398,536.408"/>
	<path clip-path="url(#XMLID_10_)" fill="#DA2B26" d="M307.13,536.833c-0.248,0-0.395-0.099-0.474-0.181
		c-0.125-0.129-0.184-0.313-0.176-0.544c0.021-0.323,0.161-0.462,0.274-0.522c0.067-0.037,0.195-0.089,0.842-0.235
		c1.337-0.302,2.657-1.014,3.927-2.12c1.268-1.104,2.124-2.28,2.546-3.496l0.277-0.817c0.108-0.315,0.132-0.492,0.132-0.583
		c0-0.12-0.023-0.154-0.023-0.155c0.005,0.014-0.066,0.023-0.237,0.141c-0.533,0.38-1.195,0.715-1.964,0.99
		c-0.775,0.278-1.442,0.419-1.981,0.419c-1.44,0-2.666-0.577-3.641-1.717c-0.966-1.128-1.455-2.527-1.455-4.162
		c0-2.106,0.657-3.863,1.953-5.22c1.3-1.361,2.98-2.051,4.995-2.051c2.001,0,3.668,0.763,4.955,2.269
		c1.274,1.492,1.92,3.43,1.92,5.755c0,2.871-0.992,5.476-2.946,7.742c-1.954,2.263-4.436,3.688-7.378,4.234l-1.156,0.219
		C307.367,536.822,307.24,536.833,307.13,536.833 M311.319,518.068c-0.8,0-1.432,0.337-1.93,1.029
		c-0.515,0.711-0.775,1.655-0.775,2.807c0,1.648,0.355,3.008,1.057,4.039c0.688,1.013,1.548,1.505,2.63,1.505
		c0.868,0,1.576-0.333,2.164-1.019c0.593-0.689,0.893-1.559,0.893-2.583c0-1.558-0.419-2.932-1.243-4.085
		C313.298,518.622,312.383,518.068,311.319,518.068"/>
	<path clip-path="url(#XMLID_10_)" fill="#DA2B26" d="M328.035,538.006c-0.204,0-0.331-0.076-0.405-0.145
		c-0.123-0.112-0.186-0.278-0.186-0.492c0-0.118,0.021-0.276,0.064-0.483c0.104-0.424,0.155-0.914,0.155-1.465l0.012-3.59
		l-0.107-0.232c-0.067-0.021-0.243-0.055-0.646-0.055h-5.786c-0.508,0-0.814-0.045-0.996-0.146
		c-0.155-0.086-0.342-0.285-0.342-0.737c0-0.376,0.402-1.369,3.544-5.746c1.733-2.413,3.319-4.497,4.713-6.196
		c2.175-2.652,2.477-2.652,2.676-2.652c0.121,0,0.518,0.047,0.518,0.664l-0.029,2.556v8.708l0.056,0.278
		c0.038,0.021,0.16,0.069,0.481,0.069c0.632,0,1.013-0.247,1.197-0.777c0.131-0.394,0.398-0.454,0.547-0.454
		c0.409,0,0.663,0.238,0.663,0.62c0,0.115-0.012,0.231-0.034,0.348c-0.026,0.121-0.068,0.426-0.128,1.206
		c-0.063,0.954-0.205,1.536-0.444,1.828c-0.254,0.312-0.732,0.462-1.464,0.462h-0.483c-0.264,0-0.342,0.042-0.35,0.047
		c0.007,0-0.041,0.115-0.041,0.563v4.629c-0.014,0.247-0.138,0.781-0.99,0.781l-0.972,0.158c-0.279,0.046-0.519,0.098-0.717,0.153
		c-0.17,0.053-0.313,0.086-0.432,0.098C328.082,538.005,328.059,538.006,328.035,538.006 M322.896,528.42
		c0.05,0.012,0.135,0.022,0.274,0.022l0.477,0.016h3.789c0.097,0,0.243,0,0.243-0.421l-0.015-0.352l-0.006-5.83
		c-0.021,0.026-0.043,0.056-0.067,0.088l-2.078,2.718c-0.629,0.807-1.366,1.861-2.191,3.135c-0.144,0.225-0.262,0.395-0.354,0.508
		C322.932,528.352,322.909,528.391,322.896,528.42"/>
	<path clip-path="url(#XMLID_10_)" fill="#DA2B26" d="M342.154,536.701c-1.926,0-3.524-0.894-4.752-2.657
		c-1.205-1.731-1.815-3.965-1.815-6.642c0-2.9,0.751-5.447,2.233-7.572c1.504-2.157,3.322-3.251,5.403-3.251
		c1.882,0,3.484,0.869,4.762,2.584c1.257,1.69,1.894,3.802,1.894,6.274c0,1.539-0.266,3.12-0.791,4.7
		c-0.525,1.584-1.227,2.923-2.085,3.981C345.604,535.833,343.974,536.701,342.154,536.701 M341.788,518.625
		c-0.916,0-1.624,0.448-2.165,1.37c-0.563,0.957-0.848,2.279-0.848,3.933c0,2.893,0.526,5.372,1.565,7.369
		c1.006,1.936,2.232,2.919,3.645,2.919c0.907,0,1.612-0.451,2.158-1.378c0.566-0.963,0.854-2.288,0.854-3.94
		c0-1.517-0.23-3.089-0.685-4.672c-0.454-1.575-1.043-2.867-1.752-3.84C343.696,519.217,342.763,518.625,341.788,518.625"/>
	<path clip-path="url(#XMLID_10_)" fill="#FFFFFF" d="M254.905,404.231c4.005,0,7.311,1.27,9.918,3.811
		c2.606,2.54,3.91,5.769,3.91,9.685c0,4.043-1.415,7.425-4.244,10.145s-6.353,4.08-10.57,4.08c-3.963,0-7.264-1.259-9.902-3.779
		c-2.638-2.519-3.957-5.683-3.957-9.493c0-4.001,1.446-7.409,4.339-10.225C247.292,405.639,250.793,404.231,254.905,404.231
		 M253.257,405.979c-2.047,0-3.673,0.866-4.876,2.597c-1.203,1.731-1.805,4.063-1.805,6.998c0,4.01,0.929,7.451,2.786,10.322
		c1.858,2.871,4.096,4.307,6.713,4.307c1.985,0,3.605-0.818,4.861-2.454c1.256-1.636,1.884-3.741,1.884-6.317
		c0-4.307-0.929-7.958-2.786-10.955C258.176,407.478,255.917,405.979,253.257,405.979"/>
	<path clip-path="url(#XMLID_10_)" fill="#FFFFFF" d="M292.93,406.827c1.526-0.168,2.665-0.554,3.417-1.156s1.213-1.496,1.383-2.681
		c0.042-0.423,0.254-0.634,0.636-0.634c0.36,0,0.54,0.274,0.54,0.823c0,0.529-0.127,1.659-0.381,3.392
		c-0.17,1.184-0.265,1.955-0.286,2.313c-0.043,0.485-0.191,0.845-0.446,1.077c-0.254,0.233-0.921,0.603-2.002,1.109
		c0.021,0.445,0.053,0.773,0.095,0.985c0.106,1.017,0.159,1.642,0.159,1.874c0,2.31-1.096,4.248-3.29,5.814
		c-2.193,1.568-4.901,2.352-8.122,2.352c-0.996,0-2.066-0.105-3.21-0.317c-0.425-0.085-0.795-0.127-1.113-0.127
		c-0.669,0-1.229,0.259-1.678,0.779c-0.45,0.519-0.675,1.159-0.675,1.923c0,1.822,1.593,2.733,4.778,2.733
		c6.179,0,10.282,0.388,12.307,1.162c2.025,0.775,3.038,2.353,3.038,4.73c0,2.633-1.142,4.863-3.425,6.689
		c-2.284,1.825-5.687,2.739-10.211,2.739c-3.932,0-6.934-0.473-9.006-1.419c-2.071-0.946-3.107-2.312-3.107-4.098
		c0-0.914,0.328-1.775,0.984-2.583c0.656-0.808,1.428-1.297,2.317-1.467c0.994-0.212,1.502-0.404,1.524-0.574l-0.254-0.413
		l-0.951-0.953c-0.951-0.996-1.427-2.14-1.427-3.433c0-1.844,0.721-3.434,2.162-4.768l1.018-0.954
		c0.19-0.19,0.285-0.392,0.285-0.604c0-0.296-0.434-0.708-1.303-1.238c-0.933-0.528-1.754-1.47-2.463-2.823
		c-0.711-1.354-1.065-2.634-1.065-3.84c0-2.602,1.069-4.754,3.21-6.458c2.141-1.702,4.864-2.554,8.17-2.554
		C287.717,404.231,290.514,405.097,292.93,406.827 M280.107,432.873c-0.811,0-1.488,0.291-2.033,0.873
		c-0.544,0.583-0.816,1.299-0.816,2.146c0,1.568,0.742,2.813,2.225,3.735c1.484,0.922,3.508,1.383,6.072,1.383
		c2.246,0,4.058-0.397,5.436-1.192c1.377-0.794,2.066-1.849,2.066-3.163c0-1.102-0.423-1.838-1.269-2.209
		c-0.847-0.371-2.814-0.673-5.904-0.906c-1.82-0.128-3.216-0.275-4.19-0.444l-0.825-0.159
		C280.594,432.893,280.34,432.873,280.107,432.873 M284.538,405.598c-1.623,0-2.902,0.632-3.839,1.896
		c-0.938,1.264-1.406,2.99-1.406,5.181c0,2.358,0.505,4.307,1.516,5.844c1.011,1.538,2.275,2.307,3.792,2.307
		c1.559,0,2.812-0.626,3.76-1.88c0.948-1.253,1.422-2.901,1.422-4.943C289.783,408.399,288.035,405.598,284.538,405.598"/>
	<path clip-path="url(#XMLID_10_)" fill="#FFFFFF" d="M316.23,404.231c4.006,0,7.313,1.27,9.918,3.811
		c2.607,2.54,3.91,5.769,3.91,9.685c0,4.043-1.414,7.425-4.242,10.145c-2.83,2.72-6.354,4.08-10.57,4.08
		c-3.963,0-7.264-1.259-9.902-3.779c-2.639-2.519-3.957-5.683-3.957-9.493c0-4.001,1.445-7.409,4.338-10.225
		C308.617,405.639,312.119,404.231,316.23,404.231 M314.584,405.979c-2.047,0-3.674,0.866-4.877,2.597
		c-1.203,1.731-1.805,4.063-1.805,6.998c0,4.01,0.93,7.451,2.787,10.322s4.096,4.307,6.713,4.307c1.984,0,3.604-0.818,4.859-2.454
		s1.886-3.741,1.886-6.317c0-4.307-0.929-7.958-2.788-10.955C319.502,407.478,317.244,405.979,314.584,405.979"/>
	<path clip-path="url(#XMLID_10_)" fill="#FFFFFF" d="M363.438,417.675v6.437c0,1.375,0.073,2.31,0.223,2.807
		c0.147,0.497,0.486,0.967,1.017,1.411c0.763,0.613,1.737,0.983,2.925,1.109c0.656,0.085,0.985,0.34,0.985,0.764
		c0,0.636-0.753,0.952-2.262,0.952c-0.319,0-0.775-0.04-1.37-0.118l-2.07-0.24c-0.936-0.1-1.668-0.149-2.198-0.149
		c-2.019,0-3.633,0.125-4.843,0.373c-0.488,0.091-0.913,0.135-1.274,0.135c-0.467,0-0.7-0.231-0.7-0.698
		c0-0.34,0.243-0.604,0.73-0.795c0.933-0.317,1.558-0.815,1.876-1.494c0.317-0.679,0.477-1.822,0.477-3.433v-7.502
		c0-2.882-0.574-5.166-1.724-6.851c-1.149-1.686-2.714-2.527-4.696-2.527c-1.771,0-3.198,0.486-4.285,1.46
		c-1.086,0.974-1.629,2.243-1.629,3.809v10.603c0,1.947,0.366,3.37,1.097,4.27c0.731,0.899,1.966,1.423,3.703,1.571
		c0.594,0.063,0.891,0.307,0.891,0.73c0,0.594-0.372,0.891-1.115,0.891c-0.701,0-1.54-0.054-2.517-0.159
		c-2.399-0.297-4.056-0.445-4.968-0.445c-1.233,0-2.656,0.112-4.27,0.34c-0.766,0.113-1.285,0.169-1.562,0.169
		c-0.531,0-0.796-0.223-0.796-0.668c0-0.296,0.18-0.52,0.54-0.667c1.081-0.402,1.77-0.843,2.066-1.319s0.445-1.351,0.445-2.623
		l0.031-1.049v-11.189l-0.031-1.239c0-1.526-0.154-2.58-0.461-3.163c-0.308-0.583-0.874-0.874-1.701-0.874h-1.462
		c-0.212,0-0.371-0.063-0.477-0.191c-0.106-0.105-0.158-0.265-0.158-0.477c0-0.402,0.158-0.685,0.478-0.843
		c0.318-0.158,1.254-0.429,2.806-0.811c2.657-0.615,4.879-1.536,6.665-2.766c0.148-0.127,0.286-0.19,0.414-0.19
		c0.254-0.021,0.381,0.181,0.381,0.604l-0.095,1.589l-0.032,1.813l0.191,1.208c0.085,0.253,0.224,0.392,0.415,0.413
		c0.169,0.021,0.508-0.265,1.016-0.858c1.945-2.373,4.516-3.561,7.71-3.561c3.448,0,5.912,1.041,7.393,3.123
		S363.438,412.877,363.438,417.675"/>
	<path clip-path="url(#XMLID_10_)" fill="#FFFFFF" d="M390.839,406.827c1.525-0.168,2.665-0.554,3.417-1.156
		s1.213-1.496,1.383-2.681c0.042-0.423,0.255-0.634,0.636-0.634c0.36,0,0.541,0.274,0.541,0.823c0,0.529-0.128,1.659-0.382,3.392
		c-0.17,1.184-0.266,1.955-0.286,2.313c-0.043,0.485-0.19,0.845-0.445,1.077c-0.254,0.233-0.922,0.603-2.002,1.109
		c0.021,0.445,0.052,0.773,0.095,0.985c0.106,1.017,0.159,1.642,0.159,1.874c0,2.31-1.097,4.248-3.29,5.814
		c-2.193,1.568-4.901,2.352-8.122,2.352c-0.996,0-2.066-0.105-3.211-0.317c-0.424-0.085-0.794-0.127-1.112-0.127
		c-0.67,0-1.229,0.259-1.679,0.779c-0.449,0.519-0.674,1.159-0.674,1.923c0,1.822,1.593,2.733,4.777,2.733
		c6.18,0,10.282,0.388,12.308,1.162c2.024,0.775,3.037,2.353,3.037,4.73c0,2.633-1.142,4.863-3.425,6.689
		c-2.283,1.825-5.687,2.739-10.21,2.739c-3.933,0-6.935-0.473-9.006-1.419c-2.072-0.946-3.107-2.312-3.107-4.098
		c0-0.914,0.327-1.775,0.983-2.583s1.428-1.297,2.317-1.467c0.994-0.212,1.502-0.404,1.523-0.574l-0.254-0.413l-0.951-0.953
		c-0.951-0.996-1.426-2.14-1.426-3.433c0-1.844,0.72-3.434,2.161-4.768l1.018-0.954c0.19-0.19,0.286-0.392,0.286-0.604
		c0-0.296-0.435-0.708-1.304-1.238c-0.933-0.528-1.754-1.47-2.464-2.823s-1.064-2.634-1.064-3.84c0-2.602,1.069-4.754,3.211-6.458
		c2.14-1.702,4.863-2.554,8.169-2.554C385.625,404.231,388.423,405.097,390.839,406.827 M378.016,432.873
		c-0.811,0-1.488,0.291-2.032,0.873c-0.545,0.583-0.816,1.299-0.816,2.146c0,1.568,0.741,2.813,2.226,3.735
		c1.482,0.922,3.507,1.383,6.071,1.383c2.246,0,4.058-0.397,5.436-1.192c1.378-0.794,2.066-1.849,2.066-3.163
		c0-1.102-0.423-1.838-1.27-2.209s-2.814-0.673-5.903-0.906c-1.82-0.128-3.217-0.275-4.189-0.444l-0.825-0.159
		C378.503,432.893,378.249,432.873,378.016,432.873 M382.446,405.598c-1.622,0-2.901,0.632-3.839,1.896s-1.406,2.99-1.406,5.181
		c0,2.358,0.506,4.307,1.516,5.844c1.013,1.538,2.276,2.307,3.793,2.307c1.559,0,2.813-0.626,3.76-1.88
		c0.947-1.253,1.422-2.901,1.422-4.943C387.691,408.399,385.943,405.598,382.446,405.598"/>
	<path clip-path="url(#XMLID_10_)" fill="#FFFFFF" d="M178.947,464.326c4.005,0,7.311,1.27,9.918,3.811
		c2.606,2.54,3.91,5.769,3.91,9.685c0,4.043-1.415,7.425-4.244,10.145s-6.353,4.08-10.57,4.08c-3.963,0-7.264-1.259-9.902-3.779
		c-2.638-2.519-3.957-5.683-3.957-9.493c0-4.001,1.446-7.409,4.339-10.225C171.334,465.734,174.835,464.326,178.947,464.326
		 M177.299,466.074c-2.047,0-3.673,0.866-4.876,2.597c-1.203,1.731-1.805,4.063-1.805,6.998c0,4.01,0.929,7.451,2.786,10.322
		c1.858,2.871,4.096,4.307,6.713,4.307c1.985,0,3.605-0.818,4.861-2.454c1.256-1.636,1.884-3.741,1.884-6.317
		c0-4.307-0.929-7.958-2.786-10.955C182.218,467.573,179.959,466.074,177.299,466.074"/>
	<path clip-path="url(#XMLID_10_)" fill="#FFFFFF" d="M203.968,471.119l4.366,9.771c0.552,1.228,0.998,1.853,1.338,1.873
		c0.552,0.043,1.816-1.93,3.792-5.917c1.975-3.987,2.963-6.563,2.963-7.726c0-1.819-1.092-2.803-3.274-2.951
		c-0.53-0.021-0.795-0.271-0.795-0.747c0-0.455,0.298-0.684,0.893-0.684l1.69,0.096l1.945,0.063l2.647,0.158l1.371-0.126
		c0.489-0.085,0.829-0.128,1.021-0.128c0.382,0,0.574,0.217,0.574,0.649c0,0.476-0.276,0.799-0.827,0.972
		c-0.806,0.233-1.494,0.942-2.066,2.128l-1.462,2.921l-2.83,5.778c-4.704,9.63-7.465,14.445-8.281,14.445
		c-0.43,0-0.816-0.371-1.16-1.111l-0.318-0.762l-7.947-17.462l-0.572-1.143l-1.272-2.667c-0.593-1.207-1.197-1.927-1.812-2.16
		c-0.826-0.323-1.25-0.637-1.271-0.938c-0.042-0.433,0.19-0.67,0.698-0.714l0.285,0.032c1.925,0.254,3.479,0.381,4.663,0.381
		c0.825,0,2.231-0.073,4.219-0.222c1.204-0.106,2.071-0.159,2.6-0.159c0.846,0,1.369,0.036,1.57,0.111
		c0.201,0.074,0.302,0.273,0.302,0.598c0,0.414-0.298,0.676-0.89,0.784c-2.035,0.34-3.052,1.027-3.052,2.063
		C203.076,468.877,203.373,469.807,203.968,471.119"/>
	<path clip-path="url(#XMLID_10_)" fill="#FFFFFF" d="M235.129,464.262c3.284,0,6.113,1.293,8.487,3.878
		c1.992,2.183,2.988,4.366,2.988,6.549c0,0.826-0.571,1.239-1.713,1.239l-1.46-0.064h-0.73l-1.935,0.033l-5.997,0.094l-3.141,0.033
		l-1.08-0.033c-0.613,0-1.005,0.076-1.174,0.225c-0.233,0.213-0.349,0.605-0.349,1.179c0,2.805,0.915,5.286,2.745,7.442
		c1.829,2.157,3.939,3.234,6.329,3.234c2.686,0,4.833-0.779,6.441-2.341l1.015-0.993c0.17-0.171,0.35-0.257,0.54-0.257
		c0.467,0,0.7,0.223,0.7,0.667c0,0.615-0.816,1.643-2.448,3.084c-2.882,2.543-5.976,3.814-9.282,3.814
		c-3.666,0-6.655-1.261-8.964-3.783c-2.31-2.522-3.465-5.775-3.465-9.759c0-3.856,1.234-7.194,3.703-10.015
		C228.808,465.671,231.738,464.262,235.129,464.262 M234.24,465.883c-1.434,0-2.687,0.705-3.762,2.114
		c-1.075,1.408-1.612,3.07-1.612,4.984c0,0.609,0.153,0.979,0.459,1.104c0.305,0.126,1.132,0.189,2.481,0.189
		c0.695,0,1.433-0.021,2.213-0.063c1.896-0.084,2.992-0.127,3.287-0.127c1.854,0,2.782-0.567,2.782-1.703
		c0-1.704-0.596-3.213-1.786-4.527C237.111,466.542,235.757,465.883,234.24,465.883"/>
	<path clip-path="url(#XMLID_10_)" fill="#FFFFFF" d="M261.465,475.19v8.918c0,3.343,1.568,5.226,4.705,5.648
		c0.656,0.087,0.985,0.347,0.985,0.778c0,0.541-0.244,0.812-0.732,0.812c-0.234,0-0.532-0.032-0.893-0.096
		c-2.123-0.317-4.31-0.477-6.561-0.477c-1.189,0-2.262,0.043-3.217,0.127l-1.975,0.19c-0.362,0.043-0.733,0.063-1.115,0.063
		c-0.595,0-0.892-0.28-0.892-0.843c0-0.389,0.264-0.647,0.795-0.778c1.673-0.401,2.511-1.975,2.511-4.723l-0.032-1.331v-11.346
		c0-1.521-0.196-2.53-0.588-3.026c-0.392-0.497-1.235-0.798-2.527-0.904c-0.488-0.043-0.732-0.271-0.732-0.682
		c0-0.477,0.288-0.758,0.862-0.844c2.914-0.445,5.404-1.261,7.467-2.448l1.24-0.73c0.169-0.106,0.328-0.159,0.477-0.159
		c0.318,0,0.476,0.233,0.476,0.699c0,0.148-0.01,0.456-0.031,0.921l-0.096,1.781l-0.127,1.97l0.031,0.351
		c0.084,0.297,0.242,0.456,0.473,0.478c0.21,0.021,0.672-0.487,1.386-1.526c0.568-0.805,1.444-1.669,2.631-2.592
		c1.186-0.921,2-1.382,2.441-1.382c0.725,0,1.807,0.552,3.245,1.653c1.439,1.101,2.169,1.929,2.19,2.479
		c0,0.19-0.342,0.933-1.026,2.225c-0.878,1.633-1.648,2.448-2.311,2.448c-0.274,0-0.526-0.105-0.758-0.318l-0.884-0.794
		c-1.073-0.996-2.304-1.494-3.693-1.494C262.706,470.239,261.465,471.889,261.465,475.19"/>
	<path clip-path="url(#XMLID_10_)" fill="#FFFFFF" d="M211.746,444.528l-8.118-0.334l-3.868-0.238
		c-2.516-0.158-4.547-0.239-6.038-0.239c-1.479,0-2.75,0.064-3.78,0.189c-1.554,0.194-2.626,0.288-3.277,0.288
		c-1.408,0-1.619-0.82-1.619-1.308c0-0.691,0.565-1.115,1.678-1.26c2.589-0.366,4.086-1.761,4.574-4.263
		c0.471-2.265,0.709-5.105,0.709-8.447V392.05c0-4.13-0.61-7.204-1.816-9.138c-1.196-1.919-3.004-2.853-5.529-2.853
		c-1.485,0-2.238-0.44-2.238-1.309c0-0.618,0.38-1.355,2.19-1.355c0.254,0,1.054,0.031,2.445,0.096
		c0.945,0.063,2.27,0.095,3.945,0.095c2.343,0,4.167-0.032,5.421-0.095l5.338-0.334c1.683-0.096,3.293-0.144,4.785-0.144
		c7.05,0,12.679,1.431,16.732,4.252c4.083,2.844,6.154,6.809,6.154,11.785c0,5.138-2.16,9.185-6.421,12.026l-2.045,1.43
		c-0.51,0.307-0.55,0.453-0.55,0.455c0.014,0.013,0.226,0.314,2.259,0.752c3.551,0.808,6.51,2.767,8.798,5.824
		c2.284,3.054,3.442,6.605,3.442,10.556c0,5.9-2.206,10.836-6.557,14.671C224.02,442.589,218.429,444.528,211.746,444.528
		 M202.214,410.196c-1.42,0-1.871,0.163-2.014,0.26c-0.123,0.084-0.33,0.361-0.33,1.266v21.997l-0.095,2.202l0.283,1.802
		c0.403,1.222,1.506,2.145,3.268,2.7c1.824,0.575,4.696,0.867,8.536,0.867c4.901,0,8.757-1.295,11.459-3.85
		c2.699-2.551,4.067-6.174,4.067-10.769c0-4.726-1.508-8.696-4.483-11.801c-2.972-3.102-6.768-4.675-11.282-4.675H202.214z
		 M204.986,380.394c-2.116,0-3.516,0.289-4.161,0.859c-0.633,0.561-0.955,1.797-0.955,3.674v19.12c0,1.266,0.24,1.719,0.44,1.875
		c0.177,0.138,0.739,0.368,2.526,0.368h7.884c7.879,0,11.709-3.432,11.709-10.492c0-4.313-1.688-7.994-5.017-10.945
		C214.072,381.895,209.892,380.394,204.986,380.394"/>
	<path clip-path="url(#XMLID_10_)" fill="#FFFFFF" d="M365.986,471.435v11.95l0.032,0.95c0,1.627,0.223,2.806,0.667,3.534
		c0.445,0.729,1.281,1.252,2.512,1.569l1.431,0.38c0.466,0.108,0.688,0.357,0.667,0.747c-0.021,0.541-0.33,0.789-0.924,0.747
		c-0.297-0.022-0.711-0.085-1.242-0.191c-1.529-0.317-3.09-0.476-4.683-0.476c-0.978,0-2.591,0.124-4.842,0.373
		c-0.914,0.09-1.562,0.135-1.944,0.135c-0.849,0-1.273-0.271-1.273-0.813c0-0.281,0.211-0.497,0.636-0.649
		c1.694-0.614,2.543-2.214,2.543-4.8v-30.994l-0.159-1.494c-0.17-0.763-0.472-1.298-0.906-1.605
		c-0.435-0.307-1.267-0.556-2.495-0.746c-0.445-0.064-0.667-0.286-0.667-0.668c0-0.36,0.148-0.614,0.446-0.763
		s1.096-0.36,2.393-0.636c2.042-0.424,3.968-1.177,5.775-2.257c1.018-0.594,1.674-0.891,1.971-0.891
		c0.339,0,0.509,0.213,0.509,0.637c0,0.298-0.043,0.828-0.127,1.592c-0.213,2.06-0.318,4.532-0.318,7.419v14.035
		c0,0.317,0.063,0.487,0.191,0.509l0.285-0.223c2.665-2.988,5.479-4.482,8.44-4.482c3.258,0,5.776,1.257,7.553,3.773
		c1.312,1.882,1.967,5.031,1.967,9.449v5.296l0.033,1.269c0,1.691,0.079,2.812,0.238,3.361s0.556,1.046,1.191,1.489
		c0.679,0.487,1.579,0.772,2.702,0.856c0.721,0.044,1.081,0.282,1.081,0.717c0,0.434-0.318,0.65-0.955,0.65l-1.37,0.063
		l-1.115-0.095c-1.487-0.19-2.793-0.286-3.919-0.286c-2.293,0-4.258,0.128-5.894,0.381c-0.255,0.042-0.457,0.064-0.605,0.064
		c-0.51,0-0.765-0.238-0.765-0.716c0-0.303,0.191-0.53,0.572-0.684c0.974-0.4,1.616-0.929,1.924-1.584
		c0.307-0.654,0.461-1.817,0.461-3.486v-6.594c0-3.507-0.464-5.979-1.392-7.418c-1.223-1.899-2.952-2.851-5.186-2.851
		C369.001,467.981,367.188,469.132,365.986,471.435"/>
	<path clip-path="url(#XMLID_10_)" fill="#FFFFFF" d="M407.382,475.991c0.232-0.966,0.35-1.794,0.35-2.486
		c0-2.119-0.511-3.851-1.53-5.194c-1.021-1.343-2.329-2.015-3.928-2.015c-2.041,0-3.062,0.844-3.062,2.53
		c0,0.316,0.021,0.622,0.063,0.917l0.096,0.601c0,1.435-1.641,2.151-4.921,2.151c-0.853,0-1.257-0.371-1.215-1.112
		c0-0.149,0.053-0.382,0.159-0.7c0.063-0.232,0.127-0.508,0.19-0.827c0.275-1.354,0.922-2.394,1.939-3.114
		c2.246-1.61,4.959-2.416,8.138-2.416c3.666,0,6.41,0.847,8.233,2.54c1.398,1.291,2.098,3.533,2.098,6.729
		c0,1.609-0.063,3.63-0.19,6.064c-0.127,2.794-0.19,4.655-0.19,5.587c0,2.181,0.868,3.271,2.606,3.271
		c0.614,0,1.07-0.075,1.367-0.223c0.339-0.148,0.582-0.223,0.73-0.223c0.297,0,0.445,0.148,0.445,0.445
		c0,0.529-0.413,1.028-1.239,1.494l-1.24,0.636l-1.081,0.636c-0.763,0.402-1.6,0.604-2.511,0.604c-1.865,0-3.434-1.208-4.705-3.624
		c-3.941,2.522-7.216,3.783-9.822,3.783c-1.802,0-3.211-0.521-4.228-1.562c-1.018-1.039-1.526-2.483-1.526-4.331
		c0-3.355,1.459-5.797,4.378-7.326C398.584,477.913,402.116,476.968,407.382,475.991 M406.746,477.834
		c-1.823-0.127-3.561,0.52-5.214,1.938c-1.652,1.421-2.479,2.979-2.479,4.674c0,2.798,1.123,4.196,3.37,4.196
		c1.398,0,2.617-0.329,3.655-0.985c0.572-0.339,0.964-0.922,1.177-1.749c0.211-0.826,0.317-2.193,0.317-4.101l0.032-2.447v-0.668
		l-0.191-0.699C407.307,477.91,407.085,477.855,406.746,477.834"/>
	<path clip-path="url(#XMLID_10_)" fill="#FFFFFF" d="M429.982,454.4v28.081l0.032,1.049c0,2.097,0.297,3.552,0.89,4.367
		c0.594,0.815,1.759,1.372,3.497,1.668c0.551,0.086,0.874,0.173,0.97,0.259c0.095,0.087,0.143,0.292,0.143,0.616
		c0,0.519-0.212,0.778-0.637,0.778c-0.233,0-0.605-0.032-1.115-0.096c-1.699-0.233-3.791-0.35-6.275-0.35
		c-2.761,0-4.704,0.105-5.829,0.316c-0.34,0.064-0.584,0.097-0.732,0.097c-0.446,0-0.669-0.271-0.669-0.812
		c0-0.28,0.265-0.529,0.794-0.746c1.61-0.655,2.416-2.042,2.416-4.158l0.063-1.842l0.032-0.855v-25.612
		c0-2.729-0.229-4.591-0.684-5.586c-0.456-0.994-1.298-1.491-2.527-1.491c-0.614,0-0.922-0.279-0.922-0.84
		c0-0.323,0.116-0.543,0.351-0.662s0.872-0.286,1.915-0.501c2.701-0.573,4.87-1.345,6.508-2.32l1.081-0.636
		c0.19-0.105,0.382-0.169,0.572-0.19c0.318-0.021,0.477,0.19,0.477,0.635c0,0.233-0.021,0.764-0.063,1.589
		C430.078,450.016,429.982,452.431,429.982,454.4"/>
	<path clip-path="url(#XMLID_10_)" fill="#FFFFFF" d="M449.651,464.261c3.284,0,6.113,1.293,8.487,3.878
		c1.991,2.183,2.988,4.366,2.988,6.549c0,0.826-0.571,1.239-1.714,1.239l-1.459-0.064h-0.73l-1.936,0.033l-5.997,0.094l-3.142,0.033
		l-1.079-0.033c-0.613,0-1.005,0.076-1.174,0.225c-0.232,0.213-0.349,0.605-0.349,1.179c0,2.805,0.914,5.286,2.744,7.442
		c1.829,2.156,3.939,3.234,6.33,3.234c2.686,0,4.832-0.779,6.44-2.341l1.015-0.993c0.17-0.171,0.35-0.257,0.541-0.257
		c0.466,0,0.699,0.222,0.699,0.667c0,0.615-0.816,1.643-2.448,3.084c-2.882,2.543-5.976,3.814-9.282,3.814
		c-3.666,0-6.654-1.262-8.964-3.783c-2.311-2.522-3.465-5.775-3.465-9.759c0-3.856,1.234-7.194,3.703-10.015
		C443.33,465.67,446.26,464.261,449.651,464.261 M448.763,465.882c-1.434,0-2.688,0.705-3.763,2.114
		c-1.074,1.408-1.611,3.07-1.611,4.984c0,0.609,0.152,0.979,0.458,1.104s1.133,0.189,2.481,0.189c0.695,0,1.433-0.021,2.213-0.063
		c1.896-0.084,2.992-0.127,3.287-0.127c1.854,0,2.782-0.567,2.782-1.703c0-1.704-0.596-3.213-1.786-4.527
		C451.633,466.541,450.279,465.882,448.763,465.882"/>
	<path clip-path="url(#XMLID_10_)" fill="#FFFFFF" d="M474.697,468.298v15.513c0,1.887,0.28,3.2,0.842,3.941
		c0.562,0.742,1.553,1.113,2.973,1.113c0.551,0,1.287-0.144,2.209-0.431s1.563-0.575,1.924-0.862
		c0.232-0.177,0.402-0.265,0.509-0.265c0.254,0,0.413,0.216,0.477,0.648l0.063,0.325l-0.383,0.552
		c-2.336,2.141-5.043,3.211-8.122,3.211c-2.379,0-4.126-0.54-5.24-1.619c-1.115-1.079-1.673-2.751-1.673-5.016v-17.111h-1.938
		c-1.018,0-1.526-0.28-1.526-0.841c0-0.346,0.266-0.7,0.798-1.066c0.915-0.614,2.224-1.791,3.926-3.529
		c1.701-1.736,2.84-3.062,3.415-3.973c0.656-1.038,1.145-1.547,1.462-1.527c0.169,0.022,0.266,0.182,0.286,0.479v7.375h4.609
		c0.826,0,1.431-0.138,1.812-0.414l0.827-0.54c0.169-0.127,0.359-0.201,0.571-0.223c0.36-0.021,0.53,0.15,0.509,0.513
		c-0.021,0.192-0.095,0.427-0.223,0.704c-0.126,0.257-0.254,0.727-0.381,1.409c-0.233,1.09-0.816,1.634-1.748,1.634H474.697z"/>
	<path clip-path="url(#XMLID_10_)" fill="#FFFFFF" d="M166.108,499.841c-2.748,0-5.249-0.767-7.434-2.278
		c-2.168-1.501-4.397-3.974-6.627-7.351L140.2,472.105c-0.678-1.157-1.747-1.716-3.273-1.716h-5.99l-0.884,0.167
		c-0.242,0.17-0.364,0.566-0.364,1.177v14.098l0.045,1.8c0.001,2.563,0.126,4.324,0.373,5.242c0.238,0.885,0.818,1.693,1.725,2.403
		c1.243,0.986,3.208,1.62,5.843,1.884c1.237,0.134,1.882,0.564,1.921,1.278c0.029,0.275-0.048,0.529-0.223,0.725
		c-0.277,0.305-0.782,0.454-1.546,0.454c-0.427,0-1.305-0.066-2.685-0.201c-1.215-0.132-3.129-0.199-5.691-0.199l-4.327-0.05
		l-2.333,0.045c-1.018,0-2.25,0.075-3.669,0.224c-1.195,0.122-2,0.182-2.461,0.182c-1.226,0-1.409-0.756-1.409-1.206
		c0-0.407,0.235-0.938,1.355-1.157c2.294-0.43,3.815-1.475,4.523-3.104c0.731-1.686,1.102-5.085,1.102-10.103v-32.384l-0.09-4.685
		c0-4.578-1.528-7.054-4.671-7.575l-2.113-0.314c-1.119-0.204-1.682-0.654-1.682-1.337c0-0.551,0.315-1.208,1.815-1.208
		c0.241,0,1.248,0.057,3.17,0.18c1.069,0.09,2.41,0.136,3.99,0.136c1.363,0,3.736-0.106,7.052-0.315
		c2.396-0.149,4.538-0.226,6.368-0.226c6.934,0,12.248,1.331,15.795,3.956c3.572,2.643,5.384,6.625,5.384,11.835
		c0,6.758-3.697,12.069-10.991,15.795l13.69,20.217c3.771,5.524,7.274,8.43,10.411,8.633l1.441,0.091
		c0.391,0.023,0.668,0.132,0.844,0.331c0.141,0.162,0.204,0.369,0.186,0.615c-0.04,0.604-0.742,1.078-2.211,1.49
		C169.295,499.653,167.777,499.841,166.108,499.841 M134.054,439.947c-1.696,0-2.871,0.272-3.492,0.812
		c-0.609,0.529-0.918,1.528-0.918,2.972l0.045,1.482v18.354c0,1.659,0.261,2.269,0.481,2.487c0.219,0.221,0.82,0.482,2.44,0.482
		h5.099c3.847,0,6.909-1.068,9.101-3.174c2.188-2.104,3.298-5.03,3.298-8.697c0-4.264-1.518-7.82-4.512-10.567
		C142.594,441.342,138.711,439.947,134.054,439.947"/>
	<path clip-path="url(#XMLID_10_)" fill="#FFFFFF" d="M326.662,500.042c-9.134,0-16.602-2.748-22.194-8.169
		c-5.598-5.423-8.437-12.659-8.437-21.508c0-8.846,2.937-16.303,8.729-22.16c5.792-5.859,13.16-8.83,21.899-8.83
		c5.981,0,11.559,1.365,16.578,4.06l1.693,0.889l0.659,0.288l0.638,0.225c0.053-0.017,0.182-0.073,0.43-0.272
		c0.904-0.655,1.25-0.738,1.45-0.738c0.928,0,1.112,1.396,1.173,1.856l1.49,11.294l-0.144,0.48c-0.21,0.391-0.506,0.588-0.879,0.625
		c-0.489,0.03-1.025-0.532-1.802-1.919c-5.209-9.104-12.363-13.722-21.263-13.722c-7.096,0-12.764,2.206-16.847,6.557
		c-4.088,4.354-6.161,10.397-6.161,17.961c0,8.721,2.313,15.943,6.872,21.466c4.546,5.505,10.475,8.297,17.621,8.297
		c4.176,0,8.34-1.133,12.378-3.366c4.03-2.228,6.859-4.961,8.409-8.125c1.034-2.113,1.556-2.426,1.93-2.453
		c0.295-0.009,0.513,0.057,0.683,0.216c0.197,0.187,0.299,0.482,0.299,0.878l-0.043,0.493l-0.173,0.963l-1.147,5.976
		c-0.124,0.808-0.816,1.62-2.113,2.464C341.847,497.931,334.537,500.042,326.662,500.042"/>
</g>
<g>
	<defs>
		<rect id="XMLID_5_" width="595.28" height="595.276"/>
	</defs>
	<clipPath id="XMLID_11_">
		<use xlink:href="#XMLID_5_" />
	</clipPath>
	<path clip-path="url(#XMLID_11_)" fill="#4C4F83" d="M454.61,350.825c0,0-4.555,0.284-10.261-1.265l-20.261-16.724
		c-5.691-8.841-11.266-19.388-18.504-23.699c-10.913-6.5-34.085-26.499-52.5-32.499s-43.585-19.5-60.027-27.668
		c-16.443-8.167-43.057-3.833-52.969-2.833c-9.913,1-21.588,1.5-37.241-3.01l62.436-108.142
		c10.159,5.958,15.404,15.515,24.888,16.096c27.345,1.673,29.858,4.911,42.103,15.795c6.982,6.204,13.364,6.51,19.429,5.711
		L454.61,350.825z"/>
	<path clip-path="url(#XMLID_11_)" fill="#6F77A6" d="M419.558,290.116c-14.599,0.313-25.813-14.047-36.858-20.052
		c-20.998-11.416-38.097-11.592-54.174-18.648c-13.786-6.051-15.858-18.277-49.233-27.532c-9.866-2.736-27.293-5.746-39.205-1.746
		c-11.29,3.791-17.427,4.439-26.393,2.213l29.982-51.94c22.24-2.606,24.994-12.186,38.99-9.536c19,3.597,29,28.431,49.784,28.671
		c11.259,0.13,20.718-2.777,33.495,5.708L419.558,290.116z"/>
	<path clip-path="url(#XMLID_11_)" fill-rule="evenodd" clip-rule="evenodd" fill="#FFFFFF" d="M350.033,228.44
		c0,1.555-1.26,2.815-2.814,2.815s-2.814-1.26-2.814-2.815c0-1.555,1.26-2.815,2.814-2.815S350.033,226.885,350.033,228.44"/>
	<path clip-path="url(#XMLID_11_)" fill-rule="evenodd" clip-rule="evenodd" fill="#FFFFFF" d="M335.819,241.109
		c0,2.288-1.854,4.142-4.142,4.142s-4.142-1.854-4.142-4.142c0-2.288,1.854-4.142,4.142-4.142S335.819,238.821,335.819,241.109"/>
	<path clip-path="url(#XMLID_11_)" fill-rule="evenodd" clip-rule="evenodd" fill="#FFFFFF" d="M363.737,225.877
		c0,2.288-1.854,4.142-4.142,4.142s-4.143-1.854-4.143-4.142c0-2.288,1.854-4.142,4.143-4.142S363.737,223.59,363.737,225.877"/>
	<path clip-path="url(#XMLID_11_)" fill-rule="evenodd" clip-rule="evenodd" fill="#FFFFFF" d="M335.354,208.834
		c0,2.288-1.854,4.142-4.142,4.142s-4.143-1.854-4.143-4.142s1.854-4.142,4.143-4.142S335.354,206.546,335.354,208.834"/>
	<path clip-path="url(#XMLID_11_)" fill-rule="evenodd" clip-rule="evenodd" fill="#FFFFFF" d="M358.238,202.335
		c0,2.288-1.854,4.142-4.143,4.142s-4.142-1.854-4.142-4.142c0-2.288,1.854-4.142,4.142-4.142S358.238,200.047,358.238,202.335"/>
	<path clip-path="url(#XMLID_11_)" fill-rule="evenodd" clip-rule="evenodd" fill="#FFFFFF" d="M288.092,197.743
		c0,2.288-1.854,4.142-4.142,4.142s-4.142-1.854-4.142-4.142s1.854-4.142,4.142-4.142S288.092,195.455,288.092,197.743"/>
	<path clip-path="url(#XMLID_11_)" fill-rule="evenodd" clip-rule="evenodd" fill="#FFFFFF" d="M251.996,195.447
		c0,2.288-1.854,4.142-4.142,4.142s-4.142-1.854-4.142-4.142s1.854-4.142,4.142-4.142S251.996,193.159,251.996,195.447"/>
	<path clip-path="url(#XMLID_11_)" fill-rule="evenodd" clip-rule="evenodd" fill="#FFFFFF" d="M228.042,218.765
		c0,1.316-1.067,2.382-2.382,2.382c-1.316,0-2.383-1.066-2.383-2.382s1.067-2.382,2.383-2.382
		C226.976,216.383,228.042,217.449,228.042,218.765"/>
	<path clip-path="url(#XMLID_11_)" fill-rule="evenodd" clip-rule="evenodd" fill="#FFFFFF" d="M261.292,208.554
		c0,1.316-1.067,2.382-2.382,2.382c-1.316,0-2.383-1.066-2.383-2.382c0-1.316,1.067-2.382,2.383-2.382
		C260.225,206.172,261.292,207.238,261.292,208.554"/>
	<path clip-path="url(#XMLID_11_)" fill-rule="evenodd" clip-rule="evenodd" fill="#FFFFFF" d="M274.07,176.845
		c0,1.316-1.067,2.382-2.382,2.382c-1.316,0-2.383-1.066-2.383-2.382s1.067-2.382,2.383-2.382
		C273.003,174.463,274.07,175.529,274.07,176.845"/>
	<path clip-path="url(#XMLID_11_)" fill-rule="evenodd" clip-rule="evenodd" fill="#FFFFFF" d="M310.431,209.717
		c0,1.316-1.067,2.382-2.382,2.382c-1.316,0-2.383-1.066-2.383-2.382s1.066-2.382,2.383-2.382
		C309.363,207.335,310.431,208.401,310.431,209.717"/>
	<path clip-path="url(#XMLID_11_)" fill-rule="evenodd" clip-rule="evenodd" fill="#FFFFFF" d="M370.763,246.593
		c0,1.316-1.067,2.382-2.382,2.382c-1.316,0-2.383-1.066-2.383-2.382s1.066-2.382,2.383-2.382
		C369.695,244.211,370.763,245.277,370.763,246.593"/>
	<path clip-path="url(#XMLID_11_)" fill-rule="evenodd" clip-rule="evenodd" fill="#FFFFFF" d="M398.417,267.249
		c0,1.316-1.066,2.382-2.382,2.382c-1.316,0-2.383-1.066-2.383-2.382s1.066-2.382,2.383-2.382
		C397.351,264.867,398.417,265.933,398.417,267.249"/>
</g>
<g>
	<defs>
		<rect id="XMLID_7_" width="595.28" height="595.276"/>
	</defs>
	<clipPath id="XMLID_12_">
		<use xlink:href="#XMLID_7_" />
	</clipPath>
</g>
</svg>
