<?xml version="1.0" encoding="UTF-8" standalone="no"?>
<svg
   xmlns:dc="http://purl.org/dc/elements/1.1/"
   xmlns:cc="http://creativecommons.org/ns#"
   xmlns:rdf="http://www.w3.org/1999/02/22-rdf-syntax-ns#"
   xmlns:svg="http://www.w3.org/2000/svg"
   xmlns="http://www.w3.org/2000/svg"
   xmlns:xlink="http://www.w3.org/1999/xlink"
   xmlns:sodipodi="http://sodipodi.sourceforge.net/DTD/sodipodi-0.dtd"
   xmlns:inkscape="http://www.inkscape.org/namespaces/inkscape"
   inkscape:version="1.0 (4035a4fb49, 2020-05-01)"
   sodipodi:docname="logo.svg"
   xml:space="preserve"
   enable-background="new 0 0 595.28 595.276"
   overflow="visible"
   viewBox="0 0 566.92899 490.97699"
   height="490.97699"
   width="566.92902"
   id="Layer_1"
   version="1.1"><metadata
   id="metadata153"><rdf:RDF><cc:Work
       rdf:about=""><dc:format>image/svg+xml</dc:format><dc:type
         rdf:resource="http://purl.org/dc/dcmitype/StillImage" /><dc:title></dc:title></cc:Work></rdf:RDF></metadata><defs
   id="defs151" /><sodipodi:namedview
   inkscape:current-layer="Layer_1"
   inkscape:window-maximized="0"
   inkscape:window-y="38"
   inkscape:window-x="0"
   inkscape:cy="247.041"
   inkscape:cx="139.26231"
   inkscape:zoom="2.1116255"
   fit-margin-bottom="0"
   fit-margin-right="0"
   fit-margin-left="0"
   fit-margin-top="0"
   showgrid="false"
   id="namedview149"
   inkscape:window-height="2360"
   inkscape:window-width="2110"
   inkscape:pageshadow="2"
   inkscape:pageopacity="0"
   guidetolerance="10"
   gridtolerance="10"
   objecttolerance="10"
   borderopacity="1"
   bordercolor="#666666"
   pagecolor="#ffffff" />
<polygon
   transform="translate(-14.176,-50.597)"
   id="polygon2"
   points="556.556,527.399 297.64,78.943 38.725,527.399 "
   fill="#113f71" />
<g
   transform="translate(-14.176,-50.597)"
   id="g40">
	<defs
   id="defs5">
		<rect
   y="0"
   x="0"
   height="595.276"
   width="595.28003"
   id="XMLID_1_" />
	</defs>
	<clipPath
   id="XMLID_9_">
		<use
   height="100%"
   width="100%"
   y="0"
   x="0"
   id="use7"
   xlink:href="#XMLID_1_" />
	</clipPath>
	<path
   id="path10"
   d="M 556.556,527.4 H 38.725 L 168.182,303.171 c 8,-5 13.809,-10.601 20.336,-17.187 4.406,0.783 15.84,-8.842 18.311,-8.717 2.47,0.125 7.595,9.75 9.845,9.75 2.25,0 3.875,-9.233 5.5,-10.804 1.625,-1.571 6.125,-1.554 9.25,0 3.125,1.554 12.311,17.179 13.781,16.804 1.469,-0.375 -5.781,-16.75 -3.781,-18 2,-1.25 11.959,3.958 16.834,6.583 4.875,2.625 9.111,10.492 12.888,9.205 6.353,8.101 15.254,18.703 24.766,22.834 h 44.537 l 12.637,19.124 H 424 l 20.421,16.854 v 1.958 l -1.884,0.002 -0.025,22.104 -6.512,-0.043 -0.005,12.872 c 25.058,15.233 52.98,53.948 71.642,56.159 z"
   fill="#da2b26"
   clip-path="url(#XMLID_9_)" />
	<path
   id="path12"
   d="m 206.829,277.268 c 2.471,0.125 7.596,9.75 9.846,9.75 2.25,0 3.875,-9.233 5.5,-10.804 1.625,-1.571 6.125,-1.554 9.25,0 3.125,1.554 12.31,17.179 13.78,16.804 1.47,-0.375 -5.78,-16.75 -3.78,-18 2,-1.25 11.958,3.958 16.833,6.583 4.875,2.625 9.111,10.492 12.889,9.205 -12.23,-15.979 -22.675,-30.947 -42.222,-30.947 -15.038,0 -27.199,12.803 -40.407,26.126 h 0.001 c 4.405,0.783 15.838,-8.842 18.31,-8.717"
   fill="#ffffff"
   clip-path="url(#XMLID_9_)" />
	<path
   id="path14"
   d="M 297.64,78.943 427.098,303.172 556.556,527.4 H 297.64 38.725 L 168.182,303.172 Z m 0,-28.346 L 155.908,296.084 14.176,541.573 H 297.64 581.105 L 439.373,296.084 Z"
   fill="#ffc82f"
   clip-path="url(#XMLID_9_)" />
	<path
   id="path16"
   d="m 302.75,369.888 c 2.501,0.738 6.532,0.772 5.393,2.716 -0.103,0.177 -17.972,0 -17.972,0 v -9.695 c 0.011,-0.639 1.28,-1.959 2.959,0.792 3.433,5.625 5.928,5.099 9.62,6.187"
   fill="#ffffff"
   clip-path="url(#XMLID_9_)" />
	<path
   id="path18"
   d="M 205.904,326.406 H 189 l -33.167,35.086 h 72.421 l 32.316,-35.086 27.763,27.91 h 21.912 l 30.203,-40.67 1.489,-2.075 c 4.461,0.552 4.466,4.539 11.828,5.213 l 5,-6.683 c -6.171,0.215 -9.514,-5.047 -13.234,-6.344 l -7.371,9.889 -82.562,-0.009 -12.329,12.769 h -32.738 l 0.002,-3.262 c 1.352,-0.409 2.26,-1.165 2.26,-2.03 0,-1.299 -2.049,-2.354 -4.576,-2.354 -2.527,0 -4.576,1.055 -4.576,2.354 0,0.866 0.909,1.622 2.263,2.031 z"
   fill="#ffffff"
   clip-rule="evenodd"
   fill-rule="evenodd"
   clip-path="url(#XMLID_9_)" />
	<rect
   id="rect20"
   height="14.31"
   width="13.553"
   fill="#ffc82f"
   clip-path="url(#XMLID_9_)"
   y="351.73199"
   x="420.68201" />
	<rect
   id="rect22"
   height="12.634"
   width="10"
   fill="#ffc82f"
   clip-path="url(#XMLID_9_)"
   y="347.27499"
   x="245.33299" />
	<rect
   id="rect24"
   height="12.634"
   width="15.667"
   fill="#ffc82f"
   clip-path="url(#XMLID_9_)"
   y="347.27499"
   x="258.08301" />
	<rect
   id="rect26"
   height="16.208"
   width="11.933"
   fill="#ffc82f"
   clip-path="url(#XMLID_9_)"
   y="343.94901"
   x="325.06799" />
	<rect
   id="rect28"
   height="16.208"
   width="11.934"
   fill="#ffc82f"
   clip-path="url(#XMLID_9_)"
   y="343.94901"
   x="339.63599" />
	<rect
   id="rect30"
   height="5.348"
   width="13.375"
   fill="#ffc82f"
   clip-path="url(#XMLID_9_)"
   y="366.04099"
   x="364.75" />
	<rect
   id="rect32"
   height="14.309"
   width="2.9159999"
   fill="#ffc82f"
   clip-path="url(#XMLID_9_)"
   y="351.733"
   x="437.08499" />
	<rect
   id="rect34"
   height="11.333"
   width="7.6669998"
   fill="#ffc82f"
   clip-path="url(#XMLID_9_)"
   y="379.138"
   x="425.41699" />
	<path
   id="path36"
   d="M 386.188,332.764 H 424 l 20.421,16.854 -25.854,-10e-4 -2.482,13.813 -51.459,-0.038 0.018,-7.364 2.771,-0.015 v -1.636 l -14.328,-21.613 h 31.446 l 10e-4,-28.22 h 1.655 c 4.791,-0.319 7.951,3.107 13.858,2.078 l -0.008,8.742 c -7.642,1.855 -8.534,-2.11 -13.851,-1.158 z"
   fill="#ffffff"
   clip-rule="evenodd"
   fill-rule="evenodd"
   clip-path="url(#XMLID_9_)" />
	<path
   id="path38"
   d="m 435.938,406.138 c 2.808,2.146 2.424,5.793 4.5,6.97 1.846,1.046 6.181,0.666 6.181,2.154 0,0.188 -4.906,1.117 -8.764,0.929 -6.447,-0.315 -13.833,-0.25 -13.833,-0.833 0,-2.25 4.399,-1.507 7.25,-2.334 2.917,-0.847 4.68,-3.094 4.68,-3.094 z"
   fill="#ffffff"
   clip-path="url(#XMLID_9_)" />
</g>
<g
   transform="translate(-14.176,-50.597)"
   id="g100">
	<defs
   id="defs43">
		<rect
   y="0"
   x="0"
   height="595.276"
   width="595.28003"
   id="XMLID_3_" />
	</defs>
	<clipPath
   id="XMLID_10_">
		<use
   height="100%"
   width="100%"
   y="0"
   x="0"
   id="use45"
   xlink:href="#XMLID_3_" />
	</clipPath>
	<path
   id="path48"
   d="M 351.274,511.743 H 244.005 c -8.849,0 -16.022,7.173 -16.022,16.021 v 13.81 h 139.314 v -13.81 c 10e-4,-8.848 -7.174,-16.021 -16.023,-16.021"
   fill="#ffc82f"
   clip-path="url(#XMLID_10_)" />
	<path
   id="path50"
   d="m 251.719,536.701 c -1.764,0 -3.224,-0.618 -4.339,-1.835 -1.109,-1.211 -1.672,-2.788 -1.672,-4.688 0,-1.841 0.598,-3.455 1.777,-4.802 1.189,-1.356 2.623,-2.044 4.264,-2.044 1.589,0 2.975,0.631 4.12,1.878 0.963,1.057 1.451,2.136 1.451,3.209 0,0.258 -0.105,0.855 -1.073,0.855 l -1.009,-0.029 -5.1,0.073 -0.508,-0.015 c -0.268,0 -0.348,0.036 -0.356,0.04 0.003,0 -0.054,0.07 -0.054,0.322 0,1.219 0.403,2.311 1.197,3.247 0.794,0.936 1.678,1.391 2.701,1.391 1.156,0 2.088,-0.336 2.77,-0.999 l 0.467,-0.457 c 0.164,-0.165 0.334,-0.199 0.447,-0.199 0.374,0 0.606,0.226 0.606,0.591 0,0.257 -0.139,0.676 -1.224,1.634 -1.375,1.211 -2.877,1.828 -4.465,1.828 m -0.38,-12.056 c -0.572,0 -1.065,0.282 -1.508,0.863 -0.454,0.595 -0.684,1.31 -0.684,2.124 0,0.2 0.043,0.252 0.043,0.252 0.019,0.007 0.194,0.062 1.027,0.062 0.316,0 0.651,-0.01 1.004,-0.03 0.885,-0.039 1.394,-0.058 1.531,-0.058 0.998,0 0.998,-0.364 0.998,-0.501 0,-0.719 -0.245,-1.339 -0.749,-1.897 -0.497,-0.548 -1.041,-0.815 -1.662,-0.815"
   fill="#da2b26"
   clip-path="url(#XMLID_10_)" />
	<path
   id="path52"
   d="m 263.196,536.701 c -0.625,0 -1.391,-0.105 -2.277,-0.314 l -1.014,-0.25 -0.634,-0.098 c -0.36,-0.066 -0.563,-0.317 -0.563,-0.691 0,-0.082 0.006,-0.209 0.015,-0.382 0.02,-0.173 0.029,-0.353 0.029,-0.555 l -0.058,-2.309 c 0,-0.315 0.037,-0.488 0.128,-0.602 0.138,-0.165 0.374,-0.186 0.565,-0.186 0.173,0 0.48,0.08 0.6,0.615 0.111,0.585 0.424,1.294 0.931,2.118 0.583,0.93 1.324,1.382 2.263,1.382 0.517,0 0.933,-0.153 1.272,-0.469 0.333,-0.312 0.495,-0.693 0.495,-1.169 0,-0.535 -0.155,-0.945 -0.476,-1.251 -0.348,-0.333 -1.039,-0.705 -2.054,-1.106 -1.313,-0.509 -2.207,-1.045 -2.73,-1.636 -0.534,-0.603 -0.804,-1.417 -0.804,-2.421 0,-1.226 0.449,-2.216 1.334,-2.942 0.869,-0.715 2.048,-1.075 3.505,-1.075 0.687,0 1.448,0.117 2.261,0.348 0.648,0.189 0.818,0.546 0.848,0.813 l 0.134,2.079 c 0.016,0.034 0.029,0.117 0.029,0.193 0,0.341 -0.234,0.562 -0.595,0.562 -0.25,0 -0.508,-0.185 -1.02,-1.107 -0.643,-1.157 -1.417,-1.72 -2.366,-1.72 -0.459,0 -0.843,0.14 -1.172,0.425 -0.317,0.276 -0.472,0.587 -0.472,0.95 0,0.694 0.504,1.243 1.539,1.674 l 1.009,0.408 c 0.882,0.37 1.472,0.652 1.804,0.865 0.339,0.218 0.664,0.528 0.966,0.924 0.515,0.684 0.776,1.529 0.776,2.515 0,1.223 -0.416,2.273 -1.237,3.125 -0.823,0.854 -1.843,1.287 -3.031,1.287"
   fill="#da2b26"
   clip-path="url(#XMLID_10_)" />
	<path
   id="path54"
   d="m 273.702,536.701 c -1.167,0 -2.046,-0.277 -2.612,-0.825 -0.569,-0.551 -0.857,-1.396 -0.857,-2.516 v -7.602 h -0.61 c -0.858,0 -0.987,-0.42 -0.987,-0.671 0,-0.26 0.161,-0.497 0.491,-0.725 0.406,-0.273 1,-0.809 1.766,-1.591 0.768,-0.784 1.285,-1.385 1.537,-1.784 0.387,-0.611 0.663,-0.828 0.933,-0.835 0.097,0.012 0.366,0.077 0.395,0.482 l 0.001,3.136 h 1.84 c 0.397,0 0.583,-0.074 0.669,-0.137 l 0.392,-0.257 c 0.105,-0.079 0.241,-0.133 0.391,-0.147 0.216,-0.014 0.343,0.065 0.411,0.133 0.068,0.067 0.147,0.192 0.135,0.401 -0.015,0.135 -0.057,0.27 -0.128,0.427 -0.031,0.061 -0.085,0.206 -0.155,0.583 -0.184,0.857 -0.758,0.984 -1.085,0.984 h -2.47 v 6.865 c 0,0.999 0.18,1.446 0.331,1.646 0.201,0.266 0.586,0.4 1.143,0.4 0.223,0 0.538,-0.063 0.934,-0.186 0.486,-0.152 0.7,-0.273 0.793,-0.349 0.173,-0.13 0.294,-0.184 0.412,-0.184 0.126,0 0.428,0.053 0.5,0.541 l 0.05,0.255 -0.244,0.352 c -1.167,1.081 -2.491,1.604 -3.976,1.604"
   fill="#da2b26"
   clip-path="url(#XMLID_10_)" />
	<path
   id="path56"
   d="m 282.154,536.701 c -0.283,0 -0.599,-0.195 -0.995,-0.616 -0.442,-0.481 -0.784,-0.829 -1.018,-1.036 -0.555,-0.499 -0.812,-0.883 -0.812,-1.209 0,-0.317 0.23,-0.669 0.723,-1.105 0.207,-0.18 0.514,-0.491 0.914,-0.931 0.488,-0.524 0.864,-0.767 1.188,-0.767 0.343,0 0.72,0.233 1.186,0.734 l 1.43,1.521 c 0.148,0.209 0.209,0.406 0.209,0.62 0,0.315 -0.234,0.675 -0.735,1.132 -0.223,0.186 -0.493,0.452 -0.815,0.802 -0.544,0.592 -0.937,0.855 -1.275,0.855"
   fill="#da2b26"
   clip-path="url(#XMLID_10_)" />
	<path
   id="path58"
   d="m 302.398,536.408 c -0.195,0 -0.817,-0.043 -1.901,-0.133 -0.548,-0.048 -1.319,-0.072 -2.295,-0.072 -0.962,0 -1.8,0.044 -2.489,0.13 -0.303,0.031 -0.518,0.046 -0.651,0.046 -0.401,0 -0.651,-0.252 -0.651,-0.658 0,-0.167 0.061,-0.563 0.621,-0.652 1.173,-0.182 1.629,-0.432 1.806,-0.607 0.17,-0.169 0.371,-0.571 0.371,-1.524 l -0.014,-0.549 -10e-4,-11.148 c 0,-1.109 -0.49,-1.252 -0.917,-1.252 -0.272,0 -0.514,0.047 -0.721,0.138 l -0.366,0.161 c -0.683,0.248 -1.072,-0.046 -1.072,-0.553 0,-0.241 0.091,-0.575 0.519,-0.802 0.268,-0.141 0.781,-0.295 1.568,-0.471 1.355,-0.291 2.323,-0.698 2.879,-1.207 l 0.691,-0.63 c 0.161,-0.146 0.359,-0.221 0.588,-0.221 0.173,0 0.576,0.082 0.576,0.84 0,0.111 -0.01,0.308 -0.029,0.591 l -0.118,1.322 c -0.019,0.253 -0.028,0.544 -0.028,0.867 l -0.029,13.173 0.142,0.756 c 0.227,0.593 0.97,0.949 2.197,1.011 0.77,0.037 0.884,0.417 0.884,0.641 0,0.531 -0.524,0.803 -1.56,0.803"
   fill="#da2b26"
   clip-path="url(#XMLID_10_)" />
	<path
   id="path60"
   d="m 307.13,536.833 c -0.248,0 -0.395,-0.099 -0.474,-0.181 -0.125,-0.129 -0.184,-0.313 -0.176,-0.544 0.021,-0.323 0.161,-0.462 0.274,-0.522 0.067,-0.037 0.195,-0.089 0.842,-0.235 1.337,-0.302 2.657,-1.014 3.927,-2.12 1.268,-1.104 2.124,-2.28 2.546,-3.496 l 0.277,-0.817 c 0.108,-0.315 0.132,-0.492 0.132,-0.583 0,-0.12 -0.023,-0.154 -0.023,-0.155 0.005,0.014 -0.066,0.023 -0.237,0.141 -0.533,0.38 -1.195,0.715 -1.964,0.99 -0.775,0.278 -1.442,0.419 -1.981,0.419 -1.44,0 -2.666,-0.577 -3.641,-1.717 -0.966,-1.128 -1.455,-2.527 -1.455,-4.162 0,-2.106 0.657,-3.863 1.953,-5.22 1.3,-1.361 2.98,-2.051 4.995,-2.051 2.001,0 3.668,0.763 4.955,2.269 1.274,1.492 1.92,3.43 1.92,5.755 0,2.871 -0.992,5.476 -2.946,7.742 -1.954,2.263 -4.436,3.688 -7.378,4.234 l -1.156,0.219 c -0.153,0.023 -0.28,0.034 -0.39,0.034 m 4.189,-18.765 c -0.8,0 -1.432,0.337 -1.93,1.029 -0.515,0.711 -0.775,1.655 -0.775,2.807 0,1.648 0.355,3.008 1.057,4.039 0.688,1.013 1.548,1.505 2.63,1.505 0.868,0 1.576,-0.333 2.164,-1.019 0.593,-0.689 0.893,-1.559 0.893,-2.583 0,-1.558 -0.419,-2.932 -1.243,-4.085 -0.817,-1.139 -1.732,-1.693 -2.796,-1.693"
   fill="#da2b26"
   clip-path="url(#XMLID_10_)" />
	<path
   id="path62"
   d="m 328.035,538.006 c -0.204,0 -0.331,-0.076 -0.405,-0.145 -0.123,-0.112 -0.186,-0.278 -0.186,-0.492 0,-0.118 0.021,-0.276 0.064,-0.483 0.104,-0.424 0.155,-0.914 0.155,-1.465 l 0.012,-3.59 -0.107,-0.232 c -0.067,-0.021 -0.243,-0.055 -0.646,-0.055 h -5.786 c -0.508,0 -0.814,-0.045 -0.996,-0.146 -0.155,-0.086 -0.342,-0.285 -0.342,-0.737 0,-0.376 0.402,-1.369 3.544,-5.746 1.733,-2.413 3.319,-4.497 4.713,-6.196 2.175,-2.652 2.477,-2.652 2.676,-2.652 0.121,0 0.518,0.047 0.518,0.664 l -0.029,2.556 v 8.708 l 0.056,0.278 c 0.038,0.021 0.16,0.069 0.481,0.069 0.632,0 1.013,-0.247 1.197,-0.777 0.131,-0.394 0.398,-0.454 0.547,-0.454 0.409,0 0.663,0.238 0.663,0.62 0,0.115 -0.012,0.231 -0.034,0.348 -0.026,0.121 -0.068,0.426 -0.128,1.206 -0.063,0.954 -0.205,1.536 -0.444,1.828 -0.254,0.312 -0.732,0.462 -1.464,0.462 h -0.483 c -0.264,0 -0.342,0.042 -0.35,0.047 0.007,0 -0.041,0.115 -0.041,0.563 v 4.629 c -0.014,0.247 -0.138,0.781 -0.99,0.781 l -0.972,0.158 c -0.279,0.046 -0.519,0.098 -0.717,0.153 -0.17,0.053 -0.313,0.086 -0.432,0.098 -0.027,10e-4 -0.05,0.002 -0.074,0.002 m -5.139,-9.586 c 0.05,0.012 0.135,0.022 0.274,0.022 l 0.477,0.016 h 3.789 c 0.097,0 0.243,0 0.243,-0.421 l -0.015,-0.352 -0.006,-5.83 c -0.021,0.026 -0.043,0.056 -0.067,0.088 l -2.078,2.718 c -0.629,0.807 -1.366,1.861 -2.191,3.135 -0.144,0.225 -0.262,0.395 -0.354,0.508 -0.036,0.048 -0.059,0.087 -0.072,0.116"
   fill="#da2b26"
   clip-path="url(#XMLID_10_)" />
	<path
   id="path64"
   d="m 342.154,536.701 c -1.926,0 -3.524,-0.894 -4.752,-2.657 -1.205,-1.731 -1.815,-3.965 -1.815,-6.642 0,-2.9 0.751,-5.447 2.233,-7.572 1.504,-2.157 3.322,-3.251 5.403,-3.251 1.882,0 3.484,0.869 4.762,2.584 1.257,1.69 1.894,3.802 1.894,6.274 0,1.539 -0.266,3.12 -0.791,4.7 -0.525,1.584 -1.227,2.923 -2.085,3.981 -1.399,1.715 -3.029,2.583 -4.849,2.583 m -0.366,-18.076 c -0.916,0 -1.624,0.448 -2.165,1.37 -0.563,0.957 -0.848,2.279 -0.848,3.933 0,2.893 0.526,5.372 1.565,7.369 1.006,1.936 2.232,2.919 3.645,2.919 0.907,0 1.612,-0.451 2.158,-1.378 0.566,-0.963 0.854,-2.288 0.854,-3.94 0,-1.517 -0.23,-3.089 -0.685,-4.672 -0.454,-1.575 -1.043,-2.867 -1.752,-3.84 -0.864,-1.169 -1.797,-1.761 -2.772,-1.761"
   fill="#da2b26"
   clip-path="url(#XMLID_10_)" />
	<path
   id="path66"
   d="m 254.905,404.231 c 4.005,0 7.311,1.27 9.918,3.811 2.606,2.54 3.91,5.769 3.91,9.685 0,4.043 -1.415,7.425 -4.244,10.145 -2.829,2.72 -6.353,4.08 -10.57,4.08 -3.963,0 -7.264,-1.259 -9.902,-3.779 -2.638,-2.519 -3.957,-5.683 -3.957,-9.493 0,-4.001 1.446,-7.409 4.339,-10.225 2.893,-2.816 6.394,-4.224 10.506,-4.224 m -1.648,1.748 c -2.047,0 -3.673,0.866 -4.876,2.597 -1.203,1.731 -1.805,4.063 -1.805,6.998 0,4.01 0.929,7.451 2.786,10.322 1.858,2.871 4.096,4.307 6.713,4.307 1.985,0 3.605,-0.818 4.861,-2.454 1.256,-1.636 1.884,-3.741 1.884,-6.317 0,-4.307 -0.929,-7.958 -2.786,-10.955 -1.858,-2.999 -4.117,-4.498 -6.777,-4.498"
   fill="#ffffff"
   clip-path="url(#XMLID_10_)" />
	<path
   id="path68"
   d="m 292.93,406.827 c 1.526,-0.168 2.665,-0.554 3.417,-1.156 0.752,-0.602 1.213,-1.496 1.383,-2.681 0.042,-0.423 0.254,-0.634 0.636,-0.634 0.36,0 0.54,0.274 0.54,0.823 0,0.529 -0.127,1.659 -0.381,3.392 -0.17,1.184 -0.265,1.955 -0.286,2.313 -0.043,0.485 -0.191,0.845 -0.446,1.077 -0.254,0.233 -0.921,0.603 -2.002,1.109 0.021,0.445 0.053,0.773 0.095,0.985 0.106,1.017 0.159,1.642 0.159,1.874 0,2.31 -1.096,4.248 -3.29,5.814 -2.193,1.568 -4.901,2.352 -8.122,2.352 -0.996,0 -2.066,-0.105 -3.21,-0.317 -0.425,-0.085 -0.795,-0.127 -1.113,-0.127 -0.669,0 -1.229,0.259 -1.678,0.779 -0.45,0.519 -0.675,1.159 -0.675,1.923 0,1.822 1.593,2.733 4.778,2.733 6.179,0 10.282,0.388 12.307,1.162 2.025,0.775 3.038,2.353 3.038,4.73 0,2.633 -1.142,4.863 -3.425,6.689 -2.284,1.825 -5.687,2.739 -10.211,2.739 -3.932,0 -6.934,-0.473 -9.006,-1.419 -2.071,-0.946 -3.107,-2.312 -3.107,-4.098 0,-0.914 0.328,-1.775 0.984,-2.583 0.656,-0.808 1.428,-1.297 2.317,-1.467 0.994,-0.212 1.502,-0.404 1.524,-0.574 l -0.254,-0.413 -0.951,-0.953 c -0.951,-0.996 -1.427,-2.14 -1.427,-3.433 0,-1.844 0.721,-3.434 2.162,-4.768 l 1.018,-0.954 c 0.19,-0.19 0.285,-0.392 0.285,-0.604 0,-0.296 -0.434,-0.708 -1.303,-1.238 -0.933,-0.528 -1.754,-1.47 -2.463,-2.823 -0.711,-1.354 -1.065,-2.634 -1.065,-3.84 0,-2.602 1.069,-4.754 3.21,-6.458 2.141,-1.702 4.864,-2.554 8.17,-2.554 3.179,0.004 5.976,0.87 8.392,2.6 m -12.823,26.046 c -0.811,0 -1.488,0.291 -2.033,0.873 -0.544,0.583 -0.816,1.299 -0.816,2.146 0,1.568 0.742,2.813 2.225,3.735 1.484,0.922 3.508,1.383 6.072,1.383 2.246,0 4.058,-0.397 5.436,-1.192 1.377,-0.794 2.066,-1.849 2.066,-3.163 0,-1.102 -0.423,-1.838 -1.269,-2.209 -0.847,-0.371 -2.814,-0.673 -5.904,-0.906 -1.82,-0.128 -3.216,-0.275 -4.19,-0.444 l -0.825,-0.159 c -0.275,-0.044 -0.529,-0.064 -0.762,-0.064 m 4.431,-27.275 c -1.623,0 -2.902,0.632 -3.839,1.896 -0.938,1.264 -1.406,2.99 -1.406,5.181 0,2.358 0.505,4.307 1.516,5.844 1.011,1.538 2.275,2.307 3.792,2.307 1.559,0 2.812,-0.626 3.76,-1.88 0.948,-1.253 1.422,-2.901 1.422,-4.943 0,-5.604 -1.748,-8.405 -5.245,-8.405"
   fill="#ffffff"
   clip-path="url(#XMLID_10_)" />
	<path
   id="path70"
   d="m 316.23,404.231 c 4.006,0 7.313,1.27 9.918,3.811 2.607,2.54 3.91,5.769 3.91,9.685 0,4.043 -1.414,7.425 -4.242,10.145 -2.83,2.72 -6.354,4.08 -10.57,4.08 -3.963,0 -7.264,-1.259 -9.902,-3.779 -2.639,-2.519 -3.957,-5.683 -3.957,-9.493 0,-4.001 1.445,-7.409 4.338,-10.225 2.892,-2.816 6.394,-4.224 10.505,-4.224 m -1.646,1.748 c -2.047,0 -3.674,0.866 -4.877,2.597 -1.203,1.731 -1.805,4.063 -1.805,6.998 0,4.01 0.93,7.451 2.787,10.322 1.857,2.871 4.096,4.307 6.713,4.307 1.984,0 3.604,-0.818 4.859,-2.454 1.255,-1.636 1.886,-3.741 1.886,-6.317 0,-4.307 -0.929,-7.958 -2.788,-10.955 -1.857,-2.999 -4.115,-4.498 -6.775,-4.498"
   fill="#ffffff"
   clip-path="url(#XMLID_10_)" />
	<path
   id="path72"
   d="m 363.438,417.675 v 6.437 c 0,1.375 0.073,2.31 0.223,2.807 0.147,0.497 0.486,0.967 1.017,1.411 0.763,0.613 1.737,0.983 2.925,1.109 0.656,0.085 0.985,0.34 0.985,0.764 0,0.636 -0.753,0.952 -2.262,0.952 -0.319,0 -0.775,-0.04 -1.37,-0.118 l -2.07,-0.24 c -0.936,-0.1 -1.668,-0.149 -2.198,-0.149 -2.019,0 -3.633,0.125 -4.843,0.373 -0.488,0.091 -0.913,0.135 -1.274,0.135 -0.467,0 -0.7,-0.231 -0.7,-0.698 0,-0.34 0.243,-0.604 0.73,-0.795 0.933,-0.317 1.558,-0.815 1.876,-1.494 0.317,-0.679 0.477,-1.822 0.477,-3.433 v -7.502 c 0,-2.882 -0.574,-5.166 -1.724,-6.851 -1.149,-1.686 -2.714,-2.527 -4.696,-2.527 -1.771,0 -3.198,0.486 -4.285,1.46 -1.086,0.974 -1.629,2.243 -1.629,3.809 v 10.603 c 0,1.947 0.366,3.37 1.097,4.27 0.731,0.899 1.966,1.423 3.703,1.571 0.594,0.063 0.891,0.307 0.891,0.73 0,0.594 -0.372,0.891 -1.115,0.891 -0.701,0 -1.54,-0.054 -2.517,-0.159 -2.399,-0.297 -4.056,-0.445 -4.968,-0.445 -1.233,0 -2.656,0.112 -4.27,0.34 -0.766,0.113 -1.285,0.169 -1.562,0.169 -0.531,0 -0.796,-0.223 -0.796,-0.668 0,-0.296 0.18,-0.52 0.54,-0.667 1.081,-0.402 1.77,-0.843 2.066,-1.319 0.296,-0.476 0.445,-1.351 0.445,-2.623 l 0.031,-1.049 V 413.58 l -0.031,-1.239 c 0,-1.526 -0.154,-2.58 -0.461,-3.163 -0.308,-0.583 -0.874,-0.874 -1.701,-0.874 h -1.462 c -0.212,0 -0.371,-0.063 -0.477,-0.191 -0.106,-0.105 -0.158,-0.265 -0.158,-0.477 0,-0.402 0.158,-0.685 0.478,-0.843 0.318,-0.158 1.254,-0.429 2.806,-0.811 2.657,-0.615 4.879,-1.536 6.665,-2.766 0.148,-0.127 0.286,-0.19 0.414,-0.19 0.254,-0.021 0.381,0.181 0.381,0.604 l -0.095,1.589 -0.032,1.813 0.191,1.208 c 0.085,0.253 0.224,0.392 0.415,0.413 0.169,0.021 0.508,-0.265 1.016,-0.858 1.945,-2.373 4.516,-3.561 7.71,-3.561 3.448,0 5.912,1.041 7.393,3.123 1.481,2.082 2.221,5.52 2.221,10.318"
   fill="#ffffff"
   clip-path="url(#XMLID_10_)" />
	<path
   id="path74"
   d="m 390.839,406.827 c 1.525,-0.168 2.665,-0.554 3.417,-1.156 0.752,-0.602 1.213,-1.496 1.383,-2.681 0.042,-0.423 0.255,-0.634 0.636,-0.634 0.36,0 0.541,0.274 0.541,0.823 0,0.529 -0.128,1.659 -0.382,3.392 -0.17,1.184 -0.266,1.955 -0.286,2.313 -0.043,0.485 -0.19,0.845 -0.445,1.077 -0.254,0.233 -0.922,0.603 -2.002,1.109 0.021,0.445 0.052,0.773 0.095,0.985 0.106,1.017 0.159,1.642 0.159,1.874 0,2.31 -1.097,4.248 -3.29,5.814 -2.193,1.568 -4.901,2.352 -8.122,2.352 -0.996,0 -2.066,-0.105 -3.211,-0.317 -0.424,-0.085 -0.794,-0.127 -1.112,-0.127 -0.67,0 -1.229,0.259 -1.679,0.779 -0.449,0.519 -0.674,1.159 -0.674,1.923 0,1.822 1.593,2.733 4.777,2.733 6.18,0 10.282,0.388 12.308,1.162 2.024,0.775 3.037,2.353 3.037,4.73 0,2.633 -1.142,4.863 -3.425,6.689 -2.283,1.825 -5.687,2.739 -10.21,2.739 -3.933,0 -6.935,-0.473 -9.006,-1.419 -2.072,-0.946 -3.107,-2.312 -3.107,-4.098 0,-0.914 0.327,-1.775 0.983,-2.583 0.656,-0.808 1.428,-1.297 2.317,-1.467 0.994,-0.212 1.502,-0.404 1.523,-0.574 l -0.254,-0.413 -0.951,-0.953 c -0.951,-0.996 -1.426,-2.14 -1.426,-3.433 0,-1.844 0.72,-3.434 2.161,-4.768 l 1.018,-0.954 c 0.19,-0.19 0.286,-0.392 0.286,-0.604 0,-0.296 -0.435,-0.708 -1.304,-1.238 -0.933,-0.528 -1.754,-1.47 -2.464,-2.823 -0.71,-1.353 -1.064,-2.634 -1.064,-3.84 0,-2.602 1.069,-4.754 3.211,-6.458 2.14,-1.702 4.863,-2.554 8.169,-2.554 3.179,0.004 5.977,0.87 8.393,2.6 m -12.823,26.046 c -0.811,0 -1.488,0.291 -2.032,0.873 -0.545,0.583 -0.816,1.299 -0.816,2.146 0,1.568 0.741,2.813 2.226,3.735 1.482,0.922 3.507,1.383 6.071,1.383 2.246,0 4.058,-0.397 5.436,-1.192 1.378,-0.794 2.066,-1.849 2.066,-3.163 0,-1.102 -0.423,-1.838 -1.27,-2.209 -0.847,-0.371 -2.814,-0.673 -5.903,-0.906 -1.82,-0.128 -3.217,-0.275 -4.189,-0.444 l -0.825,-0.159 c -0.277,-0.044 -0.531,-0.064 -0.764,-0.064 m 4.43,-27.275 c -1.622,0 -2.901,0.632 -3.839,1.896 -0.938,1.264 -1.406,2.99 -1.406,5.181 0,2.358 0.506,4.307 1.516,5.844 1.013,1.538 2.276,2.307 3.793,2.307 1.559,0 2.813,-0.626 3.76,-1.88 0.947,-1.253 1.422,-2.901 1.422,-4.943 -0.001,-5.604 -1.749,-8.405 -5.246,-8.405"
   fill="#ffffff"
   clip-path="url(#XMLID_10_)" />
	<path
   id="path76"
   d="m 178.947,464.326 c 4.005,0 7.311,1.27 9.918,3.811 2.606,2.54 3.91,5.769 3.91,9.685 0,4.043 -1.415,7.425 -4.244,10.145 -2.829,2.72 -6.353,4.08 -10.57,4.08 -3.963,0 -7.264,-1.259 -9.902,-3.779 -2.638,-2.519 -3.957,-5.683 -3.957,-9.493 0,-4.001 1.446,-7.409 4.339,-10.225 2.893,-2.816 6.394,-4.224 10.506,-4.224 m -1.648,1.748 c -2.047,0 -3.673,0.866 -4.876,2.597 -1.203,1.731 -1.805,4.063 -1.805,6.998 0,4.01 0.929,7.451 2.786,10.322 1.858,2.871 4.096,4.307 6.713,4.307 1.985,0 3.605,-0.818 4.861,-2.454 1.256,-1.636 1.884,-3.741 1.884,-6.317 0,-4.307 -0.929,-7.958 -2.786,-10.955 -1.858,-2.999 -4.117,-4.498 -6.777,-4.498"
   fill="#ffffff"
   clip-path="url(#XMLID_10_)" />
	<path
   id="path78"
   d="m 203.968,471.119 4.366,9.771 c 0.552,1.228 0.998,1.853 1.338,1.873 0.552,0.043 1.816,-1.93 3.792,-5.917 1.975,-3.987 2.963,-6.563 2.963,-7.726 0,-1.819 -1.092,-2.803 -3.274,-2.951 -0.53,-0.021 -0.795,-0.271 -0.795,-0.747 0,-0.455 0.298,-0.684 0.893,-0.684 l 1.69,0.096 1.945,0.063 2.647,0.158 1.371,-0.126 c 0.489,-0.085 0.829,-0.128 1.021,-0.128 0.382,0 0.574,0.217 0.574,0.649 0,0.476 -0.276,0.799 -0.827,0.972 -0.806,0.233 -1.494,0.942 -2.066,2.128 l -1.462,2.921 -2.83,5.778 c -4.704,9.63 -7.465,14.445 -8.281,14.445 -0.43,0 -0.816,-0.371 -1.16,-1.111 l -0.318,-0.762 -7.947,-17.462 -0.572,-1.143 -1.272,-2.667 c -0.593,-1.207 -1.197,-1.927 -1.812,-2.16 -0.826,-0.323 -1.25,-0.637 -1.271,-0.938 -0.042,-0.433 0.19,-0.67 0.698,-0.714 l 0.285,0.032 c 1.925,0.254 3.479,0.381 4.663,0.381 0.825,0 2.231,-0.073 4.219,-0.222 1.204,-0.106 2.071,-0.159 2.6,-0.159 0.846,0 1.369,0.036 1.57,0.111 0.201,0.074 0.302,0.273 0.302,0.598 0,0.414 -0.298,0.676 -0.89,0.784 -2.035,0.34 -3.052,1.027 -3.052,2.063 0,0.552 0.297,1.482 0.892,2.794"
   fill="#ffffff"
   clip-path="url(#XMLID_10_)" />
	<path
   id="path80"
   d="m 235.129,464.262 c 3.284,0 6.113,1.293 8.487,3.878 1.992,2.183 2.988,4.366 2.988,6.549 0,0.826 -0.571,1.239 -1.713,1.239 l -1.46,-0.064 h -0.73 l -1.935,0.033 -5.997,0.094 -3.141,0.033 -1.08,-0.033 c -0.613,0 -1.005,0.076 -1.174,0.225 -0.233,0.213 -0.349,0.605 -0.349,1.179 0,2.805 0.915,5.286 2.745,7.442 1.829,2.157 3.939,3.234 6.329,3.234 2.686,0 4.833,-0.779 6.441,-2.341 l 1.015,-0.993 c 0.17,-0.171 0.35,-0.257 0.54,-0.257 0.467,0 0.7,0.223 0.7,0.667 0,0.615 -0.816,1.643 -2.448,3.084 -2.882,2.543 -5.976,3.814 -9.282,3.814 -3.666,0 -6.655,-1.261 -8.964,-3.783 -2.31,-2.522 -3.465,-5.775 -3.465,-9.759 0,-3.856 1.234,-7.194 3.703,-10.015 2.469,-2.817 5.399,-4.226 8.79,-4.226 m -0.889,1.621 c -1.434,0 -2.687,0.705 -3.762,2.114 -1.075,1.408 -1.612,3.07 -1.612,4.984 0,0.609 0.153,0.979 0.459,1.104 0.305,0.126 1.132,0.189 2.481,0.189 0.695,0 1.433,-0.021 2.213,-0.063 1.896,-0.084 2.992,-0.127 3.287,-0.127 1.854,0 2.782,-0.567 2.782,-1.703 0,-1.704 -0.596,-3.213 -1.786,-4.527 -1.191,-1.312 -2.545,-1.971 -4.062,-1.971"
   fill="#ffffff"
   clip-path="url(#XMLID_10_)" />
	<path
   id="path82"
   d="m 261.465,475.19 v 8.918 c 0,3.343 1.568,5.226 4.705,5.648 0.656,0.087 0.985,0.347 0.985,0.778 0,0.541 -0.244,0.812 -0.732,0.812 -0.234,0 -0.532,-0.032 -0.893,-0.096 -2.123,-0.317 -4.31,-0.477 -6.561,-0.477 -1.189,0 -2.262,0.043 -3.217,0.127 l -1.975,0.19 c -0.362,0.043 -0.733,0.063 -1.115,0.063 -0.595,0 -0.892,-0.28 -0.892,-0.843 0,-0.389 0.264,-0.647 0.795,-0.778 1.673,-0.401 2.511,-1.975 2.511,-4.723 l -0.032,-1.331 v -11.346 c 0,-1.521 -0.196,-2.53 -0.588,-3.026 -0.392,-0.497 -1.235,-0.798 -2.527,-0.904 -0.488,-0.043 -0.732,-0.271 -0.732,-0.682 0,-0.477 0.288,-0.758 0.862,-0.844 2.914,-0.445 5.404,-1.261 7.467,-2.448 l 1.24,-0.73 c 0.169,-0.106 0.328,-0.159 0.477,-0.159 0.318,0 0.476,0.233 0.476,0.699 0,0.148 -0.01,0.456 -0.031,0.921 l -0.096,1.781 -0.127,1.97 0.031,0.351 c 0.084,0.297 0.242,0.456 0.473,0.478 0.21,0.021 0.672,-0.487 1.386,-1.526 0.568,-0.805 1.444,-1.669 2.631,-2.592 1.186,-0.921 2,-1.382 2.441,-1.382 0.725,0 1.807,0.552 3.245,1.653 1.439,1.101 2.169,1.929 2.19,2.479 0,0.19 -0.342,0.933 -1.026,2.225 -0.878,1.633 -1.648,2.448 -2.311,2.448 -0.274,0 -0.526,-0.105 -0.758,-0.318 l -0.884,-0.794 c -1.073,-0.996 -2.304,-1.494 -3.693,-1.494 -2.484,10e-4 -3.725,1.651 -3.725,4.952"
   fill="#ffffff"
   clip-path="url(#XMLID_10_)" />
	<path
   id="path84"
   d="m 211.746,444.528 -8.118,-0.334 -3.868,-0.238 c -2.516,-0.158 -4.547,-0.239 -6.038,-0.239 -1.479,0 -2.75,0.064 -3.78,0.189 -1.554,0.194 -2.626,0.288 -3.277,0.288 -1.408,0 -1.619,-0.82 -1.619,-1.308 0,-0.691 0.565,-1.115 1.678,-1.26 2.589,-0.366 4.086,-1.761 4.574,-4.263 0.471,-2.265 0.709,-5.105 0.709,-8.447 V 392.05 c 0,-4.13 -0.61,-7.204 -1.816,-9.138 -1.196,-1.919 -3.004,-2.853 -5.529,-2.853 -1.485,0 -2.238,-0.44 -2.238,-1.309 0,-0.618 0.38,-1.355 2.19,-1.355 0.254,0 1.054,0.031 2.445,0.096 0.945,0.063 2.27,0.095 3.945,0.095 2.343,0 4.167,-0.032 5.421,-0.095 l 5.338,-0.334 c 1.683,-0.096 3.293,-0.144 4.785,-0.144 7.05,0 12.679,1.431 16.732,4.252 4.083,2.844 6.154,6.809 6.154,11.785 0,5.138 -2.16,9.185 -6.421,12.026 l -2.045,1.43 c -0.51,0.307 -0.55,0.453 -0.55,0.455 0.014,0.013 0.226,0.314 2.259,0.752 3.551,0.808 6.51,2.767 8.798,5.824 2.284,3.054 3.442,6.605 3.442,10.556 0,5.9 -2.206,10.836 -6.557,14.671 -4.34,3.825 -9.931,5.764 -16.614,5.764 m -9.532,-34.332 c -1.42,0 -1.871,0.163 -2.014,0.26 -0.123,0.084 -0.33,0.361 -0.33,1.266 v 21.997 l -0.095,2.202 0.283,1.802 c 0.403,1.222 1.506,2.145 3.268,2.7 1.824,0.575 4.696,0.867 8.536,0.867 4.901,0 8.757,-1.295 11.459,-3.85 2.699,-2.551 4.067,-6.174 4.067,-10.769 0,-4.726 -1.508,-8.696 -4.483,-11.801 -2.972,-3.102 -6.768,-4.675 -11.282,-4.675 h -9.409 z m 2.772,-29.802 c -2.116,0 -3.516,0.289 -4.161,0.859 -0.633,0.561 -0.955,1.797 -0.955,3.674 v 19.12 c 0,1.266 0.24,1.719 0.44,1.875 0.177,0.138 0.739,0.368 2.526,0.368 h 7.884 c 7.879,0 11.709,-3.432 11.709,-10.492 0,-4.313 -1.688,-7.994 -5.017,-10.945 -3.34,-2.958 -7.52,-4.459 -12.426,-4.459"
   fill="#ffffff"
   clip-path="url(#XMLID_10_)" />
	<path
   id="path86"
   d="m 365.986,471.435 v 11.95 l 0.032,0.95 c 0,1.627 0.223,2.806 0.667,3.534 0.445,0.729 1.281,1.252 2.512,1.569 l 1.431,0.38 c 0.466,0.108 0.688,0.357 0.667,0.747 -0.021,0.541 -0.33,0.789 -0.924,0.747 -0.297,-0.022 -0.711,-0.085 -1.242,-0.191 -1.529,-0.317 -3.09,-0.476 -4.683,-0.476 -0.978,0 -2.591,0.124 -4.842,0.373 -0.914,0.09 -1.562,0.135 -1.944,0.135 -0.849,0 -1.273,-0.271 -1.273,-0.813 0,-0.281 0.211,-0.497 0.636,-0.649 1.694,-0.614 2.543,-2.214 2.543,-4.8 v -30.994 l -0.159,-1.494 c -0.17,-0.763 -0.472,-1.298 -0.906,-1.605 -0.435,-0.307 -1.267,-0.556 -2.495,-0.746 -0.445,-0.064 -0.667,-0.286 -0.667,-0.668 0,-0.36 0.148,-0.614 0.446,-0.763 0.298,-0.149 1.096,-0.36 2.393,-0.636 2.042,-0.424 3.968,-1.177 5.775,-2.257 1.018,-0.594 1.674,-0.891 1.971,-0.891 0.339,0 0.509,0.213 0.509,0.637 0,0.298 -0.043,0.828 -0.127,1.592 -0.213,2.06 -0.318,4.532 -0.318,7.419 v 14.035 c 0,0.317 0.063,0.487 0.191,0.509 l 0.285,-0.223 c 2.665,-2.988 5.479,-4.482 8.44,-4.482 3.258,0 5.776,1.257 7.553,3.773 1.312,1.882 1.967,5.031 1.967,9.449 v 5.296 l 0.033,1.269 c 0,1.691 0.079,2.812 0.238,3.361 0.159,0.549 0.556,1.046 1.191,1.489 0.679,0.487 1.579,0.772 2.702,0.856 0.721,0.044 1.081,0.282 1.081,0.717 0,0.434 -0.318,0.65 -0.955,0.65 l -1.37,0.063 -1.115,-0.095 c -1.487,-0.19 -2.793,-0.286 -3.919,-0.286 -2.293,0 -4.258,0.128 -5.894,0.381 -0.255,0.042 -0.457,0.064 -0.605,0.064 -0.51,0 -0.765,-0.238 -0.765,-0.716 0,-0.303 0.191,-0.53 0.572,-0.684 0.974,-0.4 1.616,-0.929 1.924,-1.584 0.307,-0.654 0.461,-1.817 0.461,-3.486 v -6.594 c 0,-3.507 -0.464,-5.979 -1.392,-7.418 -1.223,-1.899 -2.952,-2.851 -5.186,-2.851 -2.424,0.003 -4.237,1.154 -5.439,3.457"
   fill="#ffffff"
   clip-path="url(#XMLID_10_)" />
	<path
   id="path88"
   d="m 407.382,475.991 c 0.232,-0.966 0.35,-1.794 0.35,-2.486 0,-2.119 -0.511,-3.851 -1.53,-5.194 -1.021,-1.343 -2.329,-2.015 -3.928,-2.015 -2.041,0 -3.062,0.844 -3.062,2.53 0,0.316 0.021,0.622 0.063,0.917 l 0.096,0.601 c 0,1.435 -1.641,2.151 -4.921,2.151 -0.853,0 -1.257,-0.371 -1.215,-1.112 0,-0.149 0.053,-0.382 0.159,-0.7 0.063,-0.232 0.127,-0.508 0.19,-0.827 0.275,-1.354 0.922,-2.394 1.939,-3.114 2.246,-1.61 4.959,-2.416 8.138,-2.416 3.666,0 6.41,0.847 8.233,2.54 1.398,1.291 2.098,3.533 2.098,6.729 0,1.609 -0.063,3.63 -0.19,6.064 -0.127,2.794 -0.19,4.655 -0.19,5.587 0,2.181 0.868,3.271 2.606,3.271 0.614,0 1.07,-0.075 1.367,-0.223 0.339,-0.148 0.582,-0.223 0.73,-0.223 0.297,0 0.445,0.148 0.445,0.445 0,0.529 -0.413,1.028 -1.239,1.494 l -1.24,0.636 -1.081,0.636 c -0.763,0.402 -1.6,0.604 -2.511,0.604 -1.865,0 -3.434,-1.208 -4.705,-3.624 -3.941,2.522 -7.216,3.783 -9.822,3.783 -1.802,0 -3.211,-0.521 -4.228,-1.562 -1.018,-1.039 -1.526,-2.483 -1.526,-4.331 0,-3.355 1.459,-5.797 4.378,-7.326 1.798,-0.913 5.33,-1.858 10.596,-2.835 m -0.636,1.843 c -1.823,-0.127 -3.561,0.52 -5.214,1.938 -1.652,1.421 -2.479,2.979 -2.479,4.674 0,2.798 1.123,4.196 3.37,4.196 1.398,0 2.617,-0.329 3.655,-0.985 0.572,-0.339 0.964,-0.922 1.177,-1.749 0.211,-0.826 0.317,-2.193 0.317,-4.101 l 0.032,-2.447 v -0.668 l -0.191,-0.699 c -0.106,-0.083 -0.328,-0.138 -0.667,-0.159"
   fill="#ffffff"
   clip-path="url(#XMLID_10_)" />
	<path
   id="path90"
   d="m 429.982,454.4 v 28.081 l 0.032,1.049 c 0,2.097 0.297,3.552 0.89,4.367 0.594,0.815 1.759,1.372 3.497,1.668 0.551,0.086 0.874,0.173 0.97,0.259 0.095,0.087 0.143,0.292 0.143,0.616 0,0.519 -0.212,0.778 -0.637,0.778 -0.233,0 -0.605,-0.032 -1.115,-0.096 -1.699,-0.233 -3.791,-0.35 -6.275,-0.35 -2.761,0 -4.704,0.105 -5.829,0.316 -0.34,0.064 -0.584,0.097 -0.732,0.097 -0.446,0 -0.669,-0.271 -0.669,-0.812 0,-0.28 0.265,-0.529 0.794,-0.746 1.61,-0.655 2.416,-2.042 2.416,-4.158 l 0.063,-1.842 0.032,-0.855 V 457.16 c 0,-2.729 -0.229,-4.591 -0.684,-5.586 -0.456,-0.994 -1.298,-1.491 -2.527,-1.491 -0.614,0 -0.922,-0.279 -0.922,-0.84 0,-0.323 0.116,-0.543 0.351,-0.662 0.235,-0.119 0.872,-0.286 1.915,-0.501 2.701,-0.573 4.87,-1.345 6.508,-2.32 l 1.081,-0.636 c 0.19,-0.105 0.382,-0.169 0.572,-0.19 0.318,-0.021 0.477,0.19 0.477,0.635 0,0.233 -0.021,0.764 -0.063,1.589 -0.192,2.858 -0.288,5.273 -0.288,7.242"
   fill="#ffffff"
   clip-path="url(#XMLID_10_)" />
	<path
   id="path92"
   d="m 449.651,464.261 c 3.284,0 6.113,1.293 8.487,3.878 1.991,2.183 2.988,4.366 2.988,6.549 0,0.826 -0.571,1.239 -1.714,1.239 l -1.459,-0.064 h -0.73 l -1.936,0.033 -5.997,0.094 -3.142,0.033 -1.079,-0.033 c -0.613,0 -1.005,0.076 -1.174,0.225 -0.232,0.213 -0.349,0.605 -0.349,1.179 0,2.805 0.914,5.286 2.744,7.442 1.829,2.156 3.939,3.234 6.33,3.234 2.686,0 4.832,-0.779 6.44,-2.341 l 1.015,-0.993 c 0.17,-0.171 0.35,-0.257 0.541,-0.257 0.466,0 0.699,0.222 0.699,0.667 0,0.615 -0.816,1.643 -2.448,3.084 -2.882,2.543 -5.976,3.814 -9.282,3.814 -3.666,0 -6.654,-1.262 -8.964,-3.783 -2.311,-2.522 -3.465,-5.775 -3.465,-9.759 0,-3.856 1.234,-7.194 3.703,-10.015 2.471,-2.817 5.401,-4.226 8.792,-4.226 m -0.888,1.621 c -1.434,0 -2.688,0.705 -3.763,2.114 -1.074,1.408 -1.611,3.07 -1.611,4.984 0,0.609 0.152,0.979 0.458,1.104 0.306,0.125 1.133,0.189 2.481,0.189 0.695,0 1.433,-0.021 2.213,-0.063 1.896,-0.084 2.992,-0.127 3.287,-0.127 1.854,0 2.782,-0.567 2.782,-1.703 0,-1.704 -0.596,-3.213 -1.786,-4.527 -1.191,-1.312 -2.545,-1.971 -4.061,-1.971"
   fill="#ffffff"
   clip-path="url(#XMLID_10_)" />
	<path
   id="path94"
   d="m 474.697,468.298 v 15.513 c 0,1.887 0.28,3.2 0.842,3.941 0.562,0.742 1.553,1.113 2.973,1.113 0.551,0 1.287,-0.144 2.209,-0.431 0.922,-0.287 1.563,-0.575 1.924,-0.862 0.232,-0.177 0.402,-0.265 0.509,-0.265 0.254,0 0.413,0.216 0.477,0.648 l 0.063,0.325 -0.383,0.552 c -2.336,2.141 -5.043,3.211 -8.122,3.211 -2.379,0 -4.126,-0.54 -5.24,-1.619 -1.115,-1.079 -1.673,-2.751 -1.673,-5.016 v -17.111 h -1.938 c -1.018,0 -1.526,-0.28 -1.526,-0.841 0,-0.346 0.266,-0.7 0.798,-1.066 0.915,-0.614 2.224,-1.791 3.926,-3.529 1.701,-1.736 2.84,-3.062 3.415,-3.973 0.656,-1.038 1.145,-1.547 1.462,-1.527 0.169,0.022 0.266,0.182 0.286,0.479 v 7.375 h 4.609 c 0.826,0 1.431,-0.138 1.812,-0.414 l 0.827,-0.54 c 0.169,-0.127 0.359,-0.201 0.571,-0.223 0.36,-0.021 0.53,0.15 0.509,0.513 -0.021,0.192 -0.095,0.427 -0.223,0.704 -0.126,0.257 -0.254,0.727 -0.381,1.409 -0.233,1.09 -0.816,1.634 -1.748,1.634 z"
   fill="#ffffff"
   clip-path="url(#XMLID_10_)" />
	<path
   id="path96"
   d="m 166.108,499.841 c -2.748,0 -5.249,-0.767 -7.434,-2.278 -2.168,-1.501 -4.397,-3.974 -6.627,-7.351 L 140.2,472.105 c -0.678,-1.157 -1.747,-1.716 -3.273,-1.716 h -5.99 l -0.884,0.167 c -0.242,0.17 -0.364,0.566 -0.364,1.177 v 14.098 l 0.045,1.8 c 0.001,2.563 0.126,4.324 0.373,5.242 0.238,0.885 0.818,1.693 1.725,2.403 1.243,0.986 3.208,1.62 5.843,1.884 1.237,0.134 1.882,0.564 1.921,1.278 0.029,0.275 -0.048,0.529 -0.223,0.725 -0.277,0.305 -0.782,0.454 -1.546,0.454 -0.427,0 -1.305,-0.066 -2.685,-0.201 -1.215,-0.132 -3.129,-0.199 -5.691,-0.199 l -4.327,-0.05 -2.333,0.045 c -1.018,0 -2.25,0.075 -3.669,0.224 -1.195,0.122 -2,0.182 -2.461,0.182 -1.226,0 -1.409,-0.756 -1.409,-1.206 0,-0.407 0.235,-0.938 1.355,-1.157 2.294,-0.43 3.815,-1.475 4.523,-3.104 0.731,-1.686 1.102,-5.085 1.102,-10.103 v -32.384 l -0.09,-4.685 c 0,-4.578 -1.528,-7.054 -4.671,-7.575 l -2.113,-0.314 c -1.119,-0.204 -1.682,-0.654 -1.682,-1.337 0,-0.551 0.315,-1.208 1.815,-1.208 0.241,0 1.248,0.057 3.17,0.18 1.069,0.09 2.41,0.136 3.99,0.136 1.363,0 3.736,-0.106 7.052,-0.315 2.396,-0.149 4.538,-0.226 6.368,-0.226 6.934,0 12.248,1.331 15.795,3.956 3.572,2.643 5.384,6.625 5.384,11.835 0,6.758 -3.697,12.069 -10.991,15.795 l 13.69,20.217 c 3.771,5.524 7.274,8.43 10.411,8.633 l 1.441,0.091 c 0.391,0.023 0.668,0.132 0.844,0.331 0.141,0.162 0.204,0.369 0.186,0.615 -0.04,0.604 -0.742,1.078 -2.211,1.49 -1.325,0.37 -2.843,0.558 -4.512,0.558 m -32.054,-59.894 c -1.696,0 -2.871,0.272 -3.492,0.812 -0.609,0.529 -0.918,1.528 -0.918,2.972 l 0.045,1.482 v 18.354 c 0,1.659 0.261,2.269 0.481,2.487 0.219,0.221 0.82,0.482 2.44,0.482 h 5.099 c 3.847,0 6.909,-1.068 9.101,-3.174 2.188,-2.104 3.298,-5.03 3.298,-8.697 0,-4.264 -1.518,-7.82 -4.512,-10.567 -3.002,-2.756 -6.885,-4.151 -11.542,-4.151"
   fill="#ffffff"
   clip-path="url(#XMLID_10_)" />
	<path
   id="path98"
   d="m 326.662,500.042 c -9.134,0 -16.602,-2.748 -22.194,-8.169 -5.598,-5.423 -8.437,-12.659 -8.437,-21.508 0,-8.846 2.937,-16.303 8.729,-22.16 5.792,-5.859 13.16,-8.83 21.899,-8.83 5.981,0 11.559,1.365 16.578,4.06 l 1.693,0.889 0.659,0.288 0.638,0.225 c 0.053,-0.017 0.182,-0.073 0.43,-0.272 0.904,-0.655 1.25,-0.738 1.45,-0.738 0.928,0 1.112,1.396 1.173,1.856 l 1.49,11.294 -0.144,0.48 c -0.21,0.391 -0.506,0.588 -0.879,0.625 -0.489,0.03 -1.025,-0.532 -1.802,-1.919 -5.209,-9.104 -12.363,-13.722 -21.263,-13.722 -7.096,0 -12.764,2.206 -16.847,6.557 -4.088,4.354 -6.161,10.397 -6.161,17.961 0,8.721 2.313,15.943 6.872,21.466 4.546,5.505 10.475,8.297 17.621,8.297 4.176,0 8.34,-1.133 12.378,-3.366 4.03,-2.228 6.859,-4.961 8.409,-8.125 1.034,-2.113 1.556,-2.426 1.93,-2.453 0.295,-0.009 0.513,0.057 0.683,0.216 0.197,0.187 0.299,0.482 0.299,0.878 l -0.043,0.493 -0.173,0.963 -1.147,5.976 c -0.124,0.808 -0.816,1.62 -2.113,2.464 -6.543,4.163 -13.853,6.274 -21.728,6.274"
   fill="#ffffff"
   clip-path="url(#XMLID_10_)" />
</g>
<g
   transform="translate(-14.176,-50.597)"
   id="g138">
	<defs
   id="defs103">
		<rect
   y="0"
   x="0"
   height="595.276"
   width="595.28003"
   id="XMLID_5_" />
	</defs>
	<clipPath
   id="XMLID_11_">
		<use
   height="100%"
   width="100%"
   y="0"
   x="0"
   id="use105"
   xlink:href="#XMLID_5_" />
	</clipPath>
	<path
   id="path108"
   d="m 454.61,350.825 c 0,0 -4.555,0.284 -10.261,-1.265 l -20.261,-16.724 c -5.691,-8.841 -11.266,-19.388 -18.504,-23.699 -10.913,-6.5 -34.085,-26.499 -52.5,-32.499 -18.415,-6 -43.585,-19.5 -60.027,-27.668 -16.443,-8.167 -43.057,-3.833 -52.969,-2.833 -9.913,1 -21.588,1.5 -37.241,-3.01 l 62.436,-108.142 c 10.159,5.958 15.404,15.515 24.888,16.096 27.345,1.673 29.858,4.911 42.103,15.795 6.982,6.204 13.364,6.51 19.429,5.711 z"
   fill="#4c4f83"
   clip-path="url(#XMLID_11_)" />
	<path
   id="path110"
   d="m 419.558,290.116 c -14.599,0.313 -25.813,-14.047 -36.858,-20.052 -20.998,-11.416 -38.097,-11.592 -54.174,-18.648 -13.786,-6.051 -15.858,-18.277 -49.233,-27.532 -9.866,-2.736 -27.293,-5.746 -39.205,-1.746 -11.29,3.791 -17.427,4.439 -26.393,2.213 l 29.982,-51.94 c 22.24,-2.606 24.994,-12.186 38.99,-9.536 19,3.597 29,28.431 49.784,28.671 11.259,0.13 20.718,-2.777 33.495,5.708 z"
   fill="#6f77a6"
   clip-path="url(#XMLID_11_)" />
	<path
   id="path112"
   d="m 350.033,228.44 c 0,1.555 -1.26,2.815 -2.814,2.815 -1.554,0 -2.814,-1.26 -2.814,-2.815 0,-1.555 1.26,-2.815 2.814,-2.815 1.554,0 2.814,1.26 2.814,2.815"
   fill="#ffffff"
   clip-rule="evenodd"
   fill-rule="evenodd"
   clip-path="url(#XMLID_11_)" />
	<path
   id="path114"
   d="m 335.819,241.109 c 0,2.288 -1.854,4.142 -4.142,4.142 -2.288,0 -4.142,-1.854 -4.142,-4.142 0,-2.288 1.854,-4.142 4.142,-4.142 2.288,0 4.142,1.854 4.142,4.142"
   fill="#ffffff"
   clip-rule="evenodd"
   fill-rule="evenodd"
   clip-path="url(#XMLID_11_)" />
	<path
   id="path116"
   d="m 363.737,225.877 c 0,2.288 -1.854,4.142 -4.142,4.142 -2.288,0 -4.143,-1.854 -4.143,-4.142 0,-2.288 1.854,-4.142 4.143,-4.142 2.289,0 4.142,1.855 4.142,4.142"
   fill="#ffffff"
   clip-rule="evenodd"
   fill-rule="evenodd"
   clip-path="url(#XMLID_11_)" />
	<path
   id="path118"
   d="m 335.354,208.834 c 0,2.288 -1.854,4.142 -4.142,4.142 -2.288,0 -4.143,-1.854 -4.143,-4.142 0,-2.288 1.854,-4.142 4.143,-4.142 2.289,0 4.142,1.854 4.142,4.142"
   fill="#ffffff"
   clip-rule="evenodd"
   fill-rule="evenodd"
   clip-path="url(#XMLID_11_)" />
	<path
   id="path120"
   d="m 358.238,202.335 c 0,2.288 -1.854,4.142 -4.143,4.142 -2.289,0 -4.142,-1.854 -4.142,-4.142 0,-2.288 1.854,-4.142 4.142,-4.142 2.288,0 4.143,1.854 4.143,4.142"
   fill="#ffffff"
   clip-rule="evenodd"
   fill-rule="evenodd"
   clip-path="url(#XMLID_11_)" />
	<path
   id="path122"
   d="m 288.092,197.743 c 0,2.288 -1.854,4.142 -4.142,4.142 -2.288,0 -4.142,-1.854 -4.142,-4.142 0,-2.288 1.854,-4.142 4.142,-4.142 2.288,0 4.142,1.854 4.142,4.142"
   fill="#ffffff"
   clip-rule="evenodd"
   fill-rule="evenodd"
   clip-path="url(#XMLID_11_)" />
	<path
   id="path124"
   d="m 251.996,195.447 c 0,2.288 -1.854,4.142 -4.142,4.142 -2.288,0 -4.142,-1.854 -4.142,-4.142 0,-2.288 1.854,-4.142 4.142,-4.142 2.288,0 4.142,1.854 4.142,4.142"
   fill="#ffffff"
   clip-rule="evenodd"
   fill-rule="evenodd"
   clip-path="url(#XMLID_11_)" />
	<path
   id="path126"
   d="m 228.042,218.765 c 0,1.316 -1.067,2.382 -2.382,2.382 -1.316,0 -2.383,-1.066 -2.383,-2.382 0,-1.316 1.067,-2.382 2.383,-2.382 1.316,0 2.382,1.066 2.382,2.382"
   fill="#ffffff"
   clip-rule="evenodd"
   fill-rule="evenodd"
   clip-path="url(#XMLID_11_)" />
	<path
   id="path128"
   d="m 261.292,208.554 c 0,1.316 -1.067,2.382 -2.382,2.382 -1.316,0 -2.383,-1.066 -2.383,-2.382 0,-1.316 1.067,-2.382 2.383,-2.382 1.315,0 2.382,1.066 2.382,2.382"
   fill="#ffffff"
   clip-rule="evenodd"
   fill-rule="evenodd"
   clip-path="url(#XMLID_11_)" />
	<path
   id="path130"
   d="m 274.07,176.845 c 0,1.316 -1.067,2.382 -2.382,2.382 -1.316,0 -2.383,-1.066 -2.383,-2.382 0,-1.316 1.067,-2.382 2.383,-2.382 1.315,0 2.382,1.066 2.382,2.382"
   fill="#ffffff"
   clip-rule="evenodd"
   fill-rule="evenodd"
   clip-path="url(#XMLID_11_)" />
	<path
   id="path132"
   d="m 310.431,209.717 c 0,1.316 -1.067,2.382 -2.382,2.382 -1.316,0 -2.383,-1.066 -2.383,-2.382 0,-1.316 1.066,-2.382 2.383,-2.382 1.314,0 2.382,1.066 2.382,2.382"
   fill="#ffffff"
   clip-rule="evenodd"
   fill-rule="evenodd"
   clip-path="url(#XMLID_11_)" />
	<path
   id="path134"
   d="m 370.763,246.593 c 0,1.316 -1.067,2.382 -2.382,2.382 -1.316,0 -2.383,-1.066 -2.383,-2.382 0,-1.316 1.066,-2.382 2.383,-2.382 1.314,0 2.382,1.066 2.382,2.382"
   fill="#ffffff"
   clip-rule="evenodd"
   fill-rule="evenodd"
   clip-path="url(#XMLID_11_)" />
	<path
   id="path136"
   d="m 398.417,267.249 c 0,1.316 -1.066,2.382 -2.382,2.382 -1.316,0 -2.383,-1.066 -2.383,-2.382 0,-1.316 1.066,-2.382 2.383,-2.382 1.316,0 2.382,1.066 2.382,2.382"
   fill="#ffffff"
   clip-rule="evenodd"
   fill-rule="evenodd"
   clip-path="url(#XMLID_11_)" />
</g>
<g
   transform="translate(-14.176,-50.597)"
   id="g146">
	<defs
   id="defs141">
		<rect
   y="0"
   x="0"
   height="595.276"
   width="595.28003"
   id="XMLID_7_" />
	</defs>
	<clipPath
   id="XMLID_12_">
		<use
   height="100%"
   width="100%"
   y="0"
   x="0"
   id="use143"
   xlink:href="#XMLID_7_" />
	</clipPath>
</g>
</svg>
